{% if width is defined %}{% set height = (135.879/339.693) * width %}{% endif %}
<svg xmlns="http://www.w3.org/2000/svg" width="{{width|default(339.693)}}" height="{{height|default(135.879)}}" viewBox="0 0 339.693 135.879"><path fill="{{fill|default('#231F20')}}" d="M47.557.004H0V135.88h47.557v-18.53H17.834V18.53h29.723V.004m244.58 0V18.46H322.1v98.44h-29.966v18.457h47.557V.004h-47.55"/><path fill="{{fill|default('#C81C22')}}" d="M224.52 70.885h19.568c.714-3.026 3.16-4.402 6.622-4.402h23.848c10.394 0 13.146.826 13.146 8.346 0 6.42-1.12 8.98-11.515 8.98h-21.2c-10.4 0-12.13-1.56-12.13-7.16h-20.79v3.85c0 15.59 10.9 17.61 33.22 17.61h17.73c23.95 0 35.46-1.748 35.46-21.92v-4.22c0-14.68-9.07-19.26-24.76-19.26h-25.58c-8.15 0-11.21 1.56-14.07 4.13V45.29h60.834V30.98h-80.4v39.9zM126.487 97.39h86.417V83.084h-65.627c0-5.96 1.427-7.612 10.904-8.07l23.34-1.1c26.4-1.286 30.37-4.586 30.37-24.122 0-13.85-5.5-19.536-26.7-19.536h-29.76c-20.38 0-28.94 4.403-28.94 17.518v7.798h21.4v-2.846c0-6.877 2.96-8.16 12.54-8.16h14.98c14.47 0 15.08 1.19 15.08 6.602 0 6.513-1.12 6.788-17.63 7.704l-25.88 1.468c-14.57.917-20.48 6.328-20.48 14.49v22.56zm-96.607 0h86.415V83.084H50.668c0-5.96 1.426-7.612 10.903-8.07l23.34-1.1c26.4-1.286 30.37-4.586 30.37-24.122 0-13.85-5.5-19.536-26.7-19.536H58.82c-20.38 0-28.94 4.403-28.94 17.518v7.798h21.4v-2.846c0-6.877 2.954-8.16 12.535-8.16h14.98c14.47 0 15.082 1.19 15.082 6.602 0 6.513-1.12 6.788-17.63 7.704L50.36 60.338c-14.572.917-20.483 6.328-20.483 14.49V97.39"/><path fill="{{fill|default('#231F20')}}" d="M256.693 127.214h19.482v-2.076h-16.81v-6.563h16.047V116.5h-16.048v-5.996h16.7v-2.077h-19.37v18.787zm-31.143 0h2.672V110.71l18.063 16.504h3.98v-18.787h-2.672v16.505l-18.064-16.505h-3.98v18.787zm-9.18 0h2.67v-18.787h-2.67v18.787zm-27.79 0h22.584v-2.076h-18.47l18.09-14.893v-1.818H189.15v2.076h17.438l-18.01 14.74v1.97zm-9.675-6.046h-13.24l6.62-10.665 6.62 10.665zm-19.998 6.046h3.025l2.45-3.97h15.805l2.452 3.97h3.02l-11.72-18.787h-3.33l-11.71 18.787zm-3.868-9.313h-12.78v2.08h10.11v1.9c0 2.6-1.64 3.48-4.31 3.48h-10.44c-2.56 0-4.63-.72-4.63-3.99v-7.06c0-3.27 2.07-3.993 4.63-3.993h6.92c6.59 0 7.71.26 7.71 3.76h2.5v-.673c0-4.33-3.79-5.16-7.33-5.16h-10.08c-5.34 0-7.03 2.285-7.03 7.035v5.137c0 4.75 1.69 7.033 7.026 7.033h11.01c4.93 0 6.68-1.82 6.68-6.93v-2.6zm-35.34 3.27h-13.24l6.62-10.66 6.62 10.67zm-20 6.05h3.02l2.45-3.97h15.8l2.45 3.97h3.02l-11.715-18.79H111.4l-11.7 18.79zm-35.61 0h2.67v-16.51h.05l12.01 16.51h1.91l12.02-16.51h.05v16.51h2.67v-18.79H91.3l-11.52 15.75-11.524-15.75h-4.17v18.79"/></svg>
