{% if width is defined %}{% set height = (83.26/524.531) * width %}{% endif %}
<svg xmlns="http://www.w3.org/2000/svg" width="{{width|default('524.531')}}px" height="{{height|default('83.26')}}px" viewBox="0 -0.03 524.541 83.344">
<path fill="{{fill|default('#00A6B4')}}" d="M373.63 23.22a5 5 0 1 0 0 10 5 5 0 0 0 0-10m-123.61 0a5 5 0 1 0 .001 10.001 5 5 0 0 0-.001-10.001m7.62 44.83a7.768 7.768 0 0 1-1.39-.22 9.784 9.784 0 0 1-1.27-.431 2.365 2.365 0 0 1-1.26-1 3.388 3.388 0 0 1-.4-1.729v-24l-.42-.42-10.38.3v2.33c.674.048 1.343.151 2 .311.576.115 1.129.32 1.64.609a3.85 3.85 0 0 1 1.21 1.33 3.57 3.57 0 0 1 .43 1.74v18.1a3.34 3.34 0 0 1-.4 1.74 2.135 2.135 0 0 1-1.24.939 5.396 5.396 0 0 1-1.27.24l-1.42.12v2h14.19l-.02-1.959zm33.76-.26a9.532 9.532 0 0 1-1.449-.18 7.767 7.767 0 0 1-1.24-.42 2.377 2.377 0 0 1-1.221-1 3.436 3.436 0 0 1-.359-1.681V49.22a11.174 11.174 0 0 0-2-7c-1.334-1.76-3.428-2.64-6.28-2.64a11.427 11.427 0 0 0-3.431.48c-.922.276-1.804.677-2.619 1.19a15.555 15.555 0 0 0-2 1.63 74.666 74.666 0 0 0-1.791 1.721h-.149V40.42l-.47-.45-9.78.3v2.32c.561.034 1.119.108 1.67.22a4.1 4.1 0 0 1 1.34.521c.513.352.929.825 1.209 1.38a3.99 3.99 0 0 1 .43 1.859v18.18a3.35 3.35 0 0 1-.399 1.74 2.152 2.152 0 0 1-1.24.94c-.413.129-.839.21-1.27.239l-1.42.12v2h14.36v-2a12.015 12.015 0 0 1-1.511-.21 5.868 5.868 0 0 1-1.36-.45 2.698 2.698 0 0 1-1.25-1 3.065 3.065 0 0 1-.42-1.67V47.55c.26-.439.543-.863.851-1.27a6.626 6.626 0 0 1 1.569-1.48 10.338 10.338 0 0 1 2.33-1.21 8.17 8.17 0 0 1 2.9-.489A4.592 4.592 0 0 1 280 44.8a7.137 7.137 0 0 1 1.48 4.83v15.12a3.349 3.349 0 0 1-.4 1.74c-.28.458-.723.793-1.24.94a5.648 5.648 0 0 1-1.359.239l-1.51.12v2h14.369l.06-1.999zm18.721-1.23a9.63 9.63 0 0 1-2 .34c-.967.088-1.697.131-2.19.131a6.128 6.128 0 0 1-2.56-.45 3.063 3.063 0 0 1-1.431-1.31 5.731 5.731 0 0 1-.64-2.16 29.253 29.253 0 0 1-.131-3.09v-16.42h8.381v-2.86h-8.44v-9.16h-5.43v9.15h-5.431v2.86h5.311v19.931a8.174 8.174 0 0 0 1.51 5.26c1 1.24 2.733 1.859 5.2 1.859 1.43.033 2.856-.152 4.229-.55a44.06 44.06 0 0 0 3.67-1.36l-.048-2.171zm5.809-14.67a12.11 12.11 0 0 1 2.25-7.24 6.393 6.393 0 0 1 5.2-2.6 5.118 5.118 0 0 1 3.07.86 6.082 6.082 0 0 1 1.84 2.229c.463 1.008.77 2.08.91 3.18a24.39 24.39 0 0 1 .279 3.57H315.93zm0 2.5h19.47v-2a17.237 17.237 0 0 0-.67-4.92 11.056 11.056 0 0 0-2-3.939A9.82 9.82 0 0 0 329 40.76a13.6 13.6 0 0 0-5.52-1 12.163 12.163 0 0 0-5.65 1.3 12.942 12.942 0 0 0-4.22 3.41 15.877 15.877 0 0 0-2.67 5 17.833 17.833 0 0 0-.91 5.62 21.134 21.134 0 0 0 .851 6.05c.523 1.82 1.4 3.519 2.58 5a12.202 12.202 0 0 0 4.399 3.4 14.491 14.491 0 0 0 6.22 1.25 12.467 12.467 0 0 0 7.131-2.09 15.053 15.053 0 0 0 4.949-5.61l-2.09-1.28a12.304 12.304 0 0 1-3.779 4.49 8.244 8.244 0 0 1-4.58 1.24 9.391 9.391 0 0 1-4.471-1 8.315 8.315 0 0 1-3-2.73 12.603 12.603 0 0 1-1.74-4.149 23.145 23.145 0 0 1-.549-5.261"/>
<path fill="{{fill|default('#00A6B4')}}" d="M350.23 68.05a9.454 9.454 0 0 1-1.45-.21 6.872 6.872 0 0 1-1.3-.45 2.473 2.473 0 0 1-1.25-1 3.396 3.396 0 0 1-.391-1.709V24.31l-.42-.45-11.06.3v2.26c.774.07 1.542.19 2.3.36.7.103 1.377.326 2 .66.521.385.937.894 1.211 1.48.305.623.462 1.307.459 2v34.05a3.263 3.263 0 0 1-.42 1.75 2.21 2.21 0 0 1-1.25.94 7.13 7.13 0 0 1-1.279.22l-1.461.13v2h14.34l-.029-1.96zm15.641 0a9.466 9.466 0 0 1-1.451-.21 6.839 6.839 0 0 1-1.299-.45 2.465 2.465 0 0 1-1.25-1 3.365 3.365 0 0 1-.391-1.709V24.31l-.42-.45-11.06.3v2.26a17.9 17.9 0 0 1 2.301.36 6.126 6.126 0 0 1 2 .66c.52.385.936.894 1.209 1.48.307.623.463 1.307.461 2v34.05a3.272 3.272 0 0 1-.42 1.75 2.214 2.214 0 0 1-1.25.94 7.14 7.14 0 0 1-1.28.22l-1.46.13v2h14.34l-.03-1.96zm15.509 0a7.794 7.794 0 0 1-1.391-.22 9.887 9.887 0 0 1-1.27-.431 2.365 2.365 0 0 1-1.26-1 3.378 3.378 0 0 1-.4-1.729v-24l-.42-.42-10.381.3v2.33c.675.048 1.344.151 2 .311.576.115 1.13.32 1.641.609a3.84 3.84 0 0 1 1.21 1.33c.289.534.437 1.133.431 1.74v18.1a3.368 3.368 0 0 1-.4 1.74 2.138 2.138 0 0 1-1.24.939 5.377 5.377 0 0 1-1.27.24l-1.42.12v2h14.19l-.02-1.959z"/>
<path fill="{{fill|default('#00A6B4')}}" d="M399.111 49.53a9.212 9.212 0 0 1-1.391 5.229 4.471 4.471 0 0 1-4 2.07 4.383 4.383 0 0 1-3.74-2.09 9.283 9.283 0 0 1-1.45-5.4c-.003-.956.081-1.909.25-2.85a6.94 6.94 0 0 1 .851-2.37 4.475 4.475 0 0 1 1.66-1.641 4.693 4.693 0 0 1 2.399-.58 4.554 4.554 0 0 1 4.001 2.07 9.739 9.739 0 0 1 1.42 5.562m-6.82 20.039c2.286 0 4.285.051 6 .15 1.713.1 2.855.19 3.43.271a3.92 3.92 0 0 1 2.359 1.46c.543.808.812 1.768.77 2.74a5.725 5.725 0 0 1-2.52 5.109 12.278 12.278 0 0 1-6.899 1.68 16.146 16.146 0 0 1-4.29-.489 8.58 8.58 0 0 1-2.801-1.271 4.71 4.71 0 0 1-1.549-1.76 4.662 4.662 0 0 1-.451-2 5.402 5.402 0 0 1 1.361-3.8 8.253 8.253 0 0 1 4.59-2.09m10.349-26h6.92V40.74h-10.27a28.73 28.73 0 0 0-2.701-.69 13.363 13.363 0 0 0-2.67-.27 11.795 11.795 0 0 0-8 2.68 8.637 8.637 0 0 0-3.119 6.859 7.89 7.89 0 0 0 1.58 4.871 11.542 11.542 0 0 0 4.439 3.439v.45a8.82 8.82 0 0 0-3.38 2.28 4.398 4.398 0 0 0-1.149 2.92 4.247 4.247 0 0 0 .479 2.1 5.111 5.111 0 0 0 1.25 1.48 7.084 7.084 0 0 0 1.64.939c.604.256 1.223.48 1.851.67v.42a10.756 10.756 0 0 0-6.08 1.91 5.637 5.637 0 0 0-2.39 4.801 6.246 6.246 0 0 0 3.31 5.709c2.206 1.334 5.54 2 10 2a25.86 25.86 0 0 0 6.86-.77 15.55 15.55 0 0 0 4.77-2.18 8.704 8.704 0 0 0 3.73-7.211 8.19 8.19 0 0 0-.691-3.549 8.664 8.664 0 0 0-1.859-2.631 8.869 8.869 0 0 0-2.52-1.64 7.847 7.847 0 0 0-2.76-.66c-.668 0-1.746-.06-3.24-.18s-2.689-.181-3.59-.181c-.813 0-1.604-.029-2.37-.09a9.44 9.44 0 0 1-2-.3 3.29 3.29 0 0 1-1.521-.79 2.18 2.18 0 0 1-.629-1.68 2.093 2.093 0 0 1 .75-1.7c.42-.37.904-.662 1.43-.86h3.58a10.94 10.94 0 0 0 7.32-2.68 8.305 8.305 0 0 0 3.148-6.561 9.252 9.252 0 0 0-.539-3 8.623 8.623 0 0 0-1.641-2.83l.062-.246z"/>
<path fill="{{fill|default('#00A6B4')}}" d="M414.72 51.89a12.103 12.103 0 0 1 2.25-7.24 6.392 6.392 0 0 1 5.199-2.6 5.11 5.11 0 0 1 3.07.86 6.07 6.07 0 0 1 1.881 2.229c.463 1.008.77 2.08.91 3.18a24.53 24.53 0 0 1 .279 3.57H414.72zm0 2.5h19.471v-2a17.239 17.239 0 0 0-.672-4.92 11.04 11.04 0 0 0-2-3.939 9.81 9.81 0 0 0-3.729-2.771 13.612 13.612 0 0 0-5.521-1 12.155 12.155 0 0 0-5.648 1.3 12.936 12.936 0 0 0-4.221 3.41 15.837 15.837 0 0 0-2.67 5 17.776 17.776 0 0 0-.91 5.62c-.01 2.048.275 4.085.85 6.05.525 1.82 1.4 3.519 2.58 5a12.197 12.197 0 0 0 4.4 3.4 14.49 14.49 0 0 0 6.221 1.25A12.459 12.459 0 0 0 430 68.7a15.066 15.066 0 0 0 4.951-5.61l-2.09-1.28a12.302 12.302 0 0 1-3.711 4.48 8.244 8.244 0 0 1-4.58 1.24 9.397 9.397 0 0 1-4.471-1 8.323 8.323 0 0 1-3-2.73 12.618 12.618 0 0 1-1.809-4.15 23.138 23.138 0 0 1-.551-5.26m52.981 13.66a9.428 9.428 0 0 1-1.43-.18 7.767 7.767 0 0 1-1.24-.42 2.377 2.377 0 0 1-1.221-1 3.444 3.444 0 0 1-.359-1.68v-15.3a11.174 11.174 0 0 0-2-7c-1.334-1.76-3.428-2.64-6.279-2.64a11.43 11.43 0 0 0-3.432.48c-.922.276-1.803.677-2.619 1.19a15.555 15.555 0 0 0-2 1.63 74.666 74.666 0 0 0-1.791 1.721h-.148v-4.17l-.42-.42-9.781.299v2.33c.562.034 1.119.107 1.67.221.475.092.928.268 1.34.52.482.349.873.809 1.141 1.34.291.576.439 1.215.43 1.86v18.14a3.34 3.34 0 0 1-.4 1.74 2.14 2.14 0 0 1-1.238.939c-.414.131-.84.211-1.271.24l-1.42.12v2h14.4v-2a11.974 11.974 0 0 1-1.51-.21 5.811 5.811 0 0 1-1.359-.449 2.69 2.69 0 0 1-1.25-1 3.06 3.06 0 0 1-.42-1.67V47.8c.258-.439.541-.863.85-1.27a6.593 6.593 0 0 1 1.57-1.48 10.254 10.254 0 0 1 2.33-1.21 8.152 8.152 0 0 1 2.898-.489 4.6 4.6 0 0 1 3.602 1.699 7.141 7.141 0 0 1 1.479 4.83v15.09a3.357 3.357 0 0 1-.398 1.74 2.14 2.14 0 0 1-1.24.939 5.617 5.617 0 0 1-1.361.24l-1.51.12v2h14.371l.016-1.959zm19.571.69a15.393 15.393 0 0 0 5.189-5.58l-1.9-1.25a13.725 13.725 0 0 1-3.619 4.229 7.996 7.996 0 0 1-4.84 1.41 7.532 7.532 0 0 1-6.441-3.5 15.425 15.425 0 0 1-2.459-9 23.446 23.446 0 0 1 .68-6.05 12.07 12.07 0 0 1 1.791-4 6.996 6.996 0 0 1 2.51-2.25 6.317 6.317 0 0 1 2.719-.61 8 8 0 0 1 2.271.311 2.635 2.635 0 0 1 1.59 1.23 15.2 15.2 0 0 1-.42 2.069 11.181 11.181 0 0 0-.361 2.75 2.658 2.658 0 0 0 1 2c.764.635 1.74.953 2.73.89a2.556 2.556 0 0 0 2.359-1.149c.488-.794.738-1.71.721-2.64a6.729 6.729 0 0 0-2.711-5.65 11.274 11.274 0 0 0-7-2.07 12.997 12.997 0 0 0-5.789 1.3 13.148 13.148 0 0 0-4.41 3.41 16.012 16.012 0 0 0-2.82 4.9 17.007 17.007 0 0 0-1 5.8c0 4.754 1.203 8.54 3.609 11.359 2.408 2.82 5.74 4.23 10 4.23a12.196 12.196 0 0 0 6.601-2.139M499.5 51.89a12.117 12.117 0 0 1 2.25-7.24 6.396 6.396 0 0 1 5.201-2.6 5.108 5.108 0 0 1 3.068.86 6.05 6.05 0 0 1 1.881 2.229c.463 1.008.77 2.08.91 3.18.182 1.182.275 2.375.279 3.57H499.5zm0 2.5h19.471v-2a17.237 17.237 0 0 0-.67-4.92 11.073 11.073 0 0 0-2-3.939 9.82 9.82 0 0 0-3.73-2.771 13.604 13.604 0 0 0-5.52-1 12.163 12.163 0 0 0-5.65 1.3 12.936 12.936 0 0 0-4.221 3.41 15.826 15.826 0 0 0-2.67 5 17.89 17.89 0 0 0-.91 5.62 21.17 21.17 0 0 0 .852 6.05c.523 1.82 1.4 3.519 2.58 5a12.207 12.207 0 0 0 4.398 3.4 14.496 14.496 0 0 0 6.221 1.25 12.47 12.47 0 0 0 7.131-2.09 15.061 15.061 0 0 0 4.949-5.61l-2.09-1.28a12.282 12.282 0 0 1-3.711 4.48 8.25 8.25 0 0 1-4.639 1.25 9.391 9.391 0 0 1-4.471-1 8.307 8.307 0 0 1-3-2.73 12.603 12.603 0 0 1-1.74-4.149 23.145 23.145 0 0 1-.549-5.261"/>
<path fill="{{fill|default('#241F20')}}" d="M23.16 19.97h.13l6.36 18.55H17.54l5.62-18.55zm-3.25-15L0 57.42h10.5l4.2-10.771h17.74l3.93 10.771H47L27.63 4.97h-7.72zm38.66 19.2h-9.48v33.25h9.48V41.1c0-3.52-.27-10.43 5-10.43 4.94 0 4.54 6.64 4.54 9.89v16.86h9.48V41.1c0-3.45-.07-10.43 5.08-10.43 4.67 0 4.47 6 4.47 9.28v17.47h9.48V36.7c0-7.24-2.1-13.61-10.56-13.61a11.51 11.51 0 0 0-9.68 5.21 10.541 10.541 0 0 0-9.55-5.21 10 10 0 0 0-8.13 4.06h-.13v-2.98zm67.72 16.59c0 4.47-3 9.341-7.85 9.341s-7.85-4.881-7.85-9.341 3-9.28 7.85-9.28 7.85 4.81 7.85 9.28m9.62-.14c0-8.73-5.76-17.54-15.17-17.54a12.242 12.242 0 0 0-9.21 4.13V-.03h-9.48v57.45h9.48V54.3h.13a10.996 10.996 0 0 0 8.87 4.2c9.82 0 15.37-8.8 15.37-17.88m3.85-16.45h9.48v33.25h-9.48zM144.5 4.6a5.62 5.62 0 1 0 5.62 5.62 5.65 5.65 0 0 0-5.62-5.62m31.48 31.82h-12.69c.47-3.45 2.57-6.7 6.37-6.7 3.8 0 5.82 3.32 6.3 6.7m8.94 5.89v-1.15c0-10-4.87-18.08-15.78-18.08S153 31 153 41.08s6.3 17.399 16.59 17.399c7 0 12.8-3.72 15.1-10.359l-8.74-1.42c-1.29 2.64-3.25 4.54-6.37 4.54-4.94 0-6.57-4.74-6.57-8.94l21.89.01zm13.23-18.14h-9.48v33.25h9.48V40.97c0-4 .07-10.29 5.69-10.29 5.35 0 5.15 5.15 5.15 9.14v17.6h9.48V37.1c0-7.72-2.57-14-11.51-14-3.39 0-6.7 1.15-8.67 4.13h-.13l-.01-3.06zm37.03 7.99h5.82v-7.99h-5.82V12.93h-9.48v11.24h-5.8v7.99h5.8v25.26h9.48z"/>
<path fill="{{fill|default('#00A6B4')}}" d="M520.531 67.72a.544.544 0 0 0-.512-.32.468.468 0 0 0-.488.45v.011c0 .26.26.369.459.459l.201.091c.389.17.709.36.709.83a.938.938 0 0 1-.979.899.937.937 0 0 1-.881-.75l.32-.09a.61.61 0 0 0 .59.551.601.601 0 0 0 .609-.58c0-.351-.27-.461-.551-.59l-.18-.08c-.35-.16-.65-.33-.65-.761a.782.782 0 0 1 .83-.76.85.85 0 0 1 .771.46l-.248.18zm1.238-.75l1.08 2.49 1.092-2.49.6 3.141h-.34l-.381-2-1 2.13-1-2.13-.381 2h-.34l.67-3.141z"/>
</svg>
