{% if width is defined %}{% set height = (171.519/394.247) * width %}{% endif %}
<svg xmlns="http://www.w3.org/2000/svg" id="Layer_1" width="{{ width|default('394.247') }}" height="{{ height|default('171.519') }}" viewBox="0 0 394.247 171.519" {% if classes %}class="{{classes|join(' ')}}"{% endif %}>
<g><path fill="{{ fill|default('#00447C') }}" d="M0 73.67h29.646c8.058 0 13.73-.298 19-2.586 8.755-3.88 11.64-11.54 11.64-17.01 0-3.98-1.392-7.86-3.88-10.546-3.88-4.377-9.55-5.272-13.827-5.97 3.78-.795 10.54-2.187 13.72-9.35.3-.697 1.29-2.985 1.29-6.765 0-6.666-3.48-13.53-12.14-16.315-4.28-1.393-10.95-1.69-18.31-1.69H0V73.67zm31.138-57.103c3.383 0 9.252.298 9.252 7.063 0 7.263-6.466 7.46-10.446 7.56h-13.23V16.568h14.424zm.796 27.358c3.582.1 10.545.2 10.545 8.655 0 8.06-7.66 8.257-13.53 8.357H16.71V43.925h15.22zm63.57 10.148c-.1 2.785-.2 5.372-3.483 7.36-2.28 1.294-4.37 1.294-5.27 1.294-3.08 0-5.17-1.393-6.07-2.586-1.19-1.59-1.19-3.88-1.19-6.16V21.74H64.07v32.63c0 8.457.497 11.54 3.183 15.32 3.583 4.975 9.85 5.473 13.23 5.473 3.385 0 6.767-.796 9.85-2.388 2.786-1.393 3.68-2.388 5.174-4.08v4.975h15.32V21.74h-15.32v32.333zm18.104 10.843c3.283 3.084 10.744 10.048 25.17 10.048 12.236 0 24.572-5.97 24.572-18.205 0-12.34-12.137-15.13-22.583-17.02-4.974-.9-8.257-1.49-8.257-4.48 0-1.5 1.393-3.88 7.36-3.88 3.583 0 8.16 1.39 13.034 5.17l9.45-8.76c-3.58-2.49-10.942-7.76-23.18-7.76-14.523 0-21.885 8.85-21.885 17.41 0 3.88 1.59 7.46 3.88 9.75 2.28 2.29 5.47 3.58 8.65 4.47 2.29.69 4.67 1.19 6.96 1.59 2.98.49 6.56.79 8.85 1.99.89.49 1.99 1.19 1.99 2.98 0 3.88-5.57 5.07-9.26 5.07-5.77 0-10.95-3.09-15.12-7.16l-9.65 8.75zm55.014 8.755h15.12V21.64h-15.12v52.03zm38.5-51.83H191.7v51.83h15.32V45.62c0-6.466 0-12.933 8.058-12.933 2.984 0 5.67 1.194 6.864 3.98.597 1.392.696 3.083.696 7.76V73.67h15.22V38.155c0-8.058-1.39-12.734-6.863-15.62-2.686-1.49-6.168-2.088-9.252-2.088-3.68 0-7.062.895-9.45 1.89-2.687 1.293-3.682 2.487-5.174 4.08V21.84zm75.506 32.73c-1.89 3.68-4.774 9.16-13.132 9.16-8.257 0-11.938-6.46-11.838-12.93h37.107c-.2-5.87-.598-16.01-7.362-23.28-6.665-7.16-15.62-7.46-18.703-7.46-20.493 0-26.66 16.12-26.66 28.65 0 17.02 10.842 26.86 26.263 26.86 8.356 0 15.12-3.18 19.598-7.36 2.69-2.48 4.48-5.07 6.27-7.76l-11.54-5.87zm-24.87-13.33c.496-2.19.994-4.57 3.083-6.86 1.5-1.59 4.08-3.38 7.77-3.38 2.69 0 5.57 1 7.46 2.89 2.19 2.29 2.59 5.18 2.89 7.36h-21.19zm36.907 23.68c3.283 3.09 10.744 10.05 25.17 10.05 12.235 0 24.57-5.97 24.57-18.2 0-12.33-12.136-15.12-22.58-17.01-4.976-.89-8.26-1.49-8.26-4.47 0-1.49 1.394-3.88 7.362-3.88 3.582 0 8.158 1.4 13.032 5.18l9.45-8.75c-3.58-2.49-10.95-7.76-23.18-7.76-14.53 0-21.89 8.85-21.89 17.41 0 3.88 1.59 7.46 3.88 9.75s5.47 3.58 8.65 4.48c2.29.698 4.67 1.19 6.96 1.59 2.98.5 6.56.8 8.85 1.99.89.5 1.99 1.197 1.99 2.988 0 3.88-5.57 5.077-9.25 5.077-5.77 0-10.95-3.084-15.13-7.163l-9.65 8.757zm49.84 0c3.283 3.09 10.745 10.05 25.17 10.05 12.236 0 24.572-5.97 24.572-18.2 0-12.33-12.137-15.12-22.583-17.01-4.974-.89-8.257-1.49-8.257-4.47 0-1.49 1.393-3.88 7.362-3.88 3.58 0 8.15 1.4 13.03 5.18l9.45-8.75c-3.58-2.49-10.94-7.76-23.18-7.76-14.53 0-21.89 8.85-21.89 17.41 0 3.88 1.59 7.46 3.88 9.75s5.47 3.58 8.65 4.48c2.28.698 4.67 1.19 6.96 1.59 2.98.5 6.56.8 8.85 1.99.89.5 1.99 1.197 1.99 2.988 0 3.88-5.57 5.077-9.25 5.077-5.77 0-10.95-3.084-15.13-7.163l-9.65 8.757z"/><path fill="{{ fill|default('#D81F26') }}" d="M176.2 15.613c4.31 0 7.805-3.495 7.805-7.806C184.005 3.495 180.51 0 176.2 0s-7.807 3.495-7.807 7.807c0 4.31 3.495 7.806 7.806 7.806z"/><path fill="{{ fill|default('#00447C') }}" d="M159.204 131.143c-1.492 6.712-5.753 11.72-13.317 11.72-11.932 0-16.406-10.44-16.193-18.857h38.14c0-2.13 0-5.966-.96-10.228-2.983-12.677-12.784-17.79-22.052-17.79-10.653 0-24.29 7.244-24.29 26.206 0 16.938 9.695 27.06 24.61 27.06 17.045 0 21.52-13.53 22.69-16.938l-8.628-1.173zm-29.297-13.21c.96-10.12 7.03-15.447 14.276-15.447 4.154 0 13.636 2.237 14.382 15.447h-28.658zm42.836 53.586h8.416v-29.73c4.26 5.22 10.22 7.45 16.93 7.45 15.87 0 23.54-12.25 23.54-26.53 0-18.11-11.72-26.74-22.59-26.74-4.9 0-10.02 1.92-13.21 4.15-2.03 1.38-2.99 2.66-4.69 4.58v-7.13h-8.42v73.93zm23.864-67.55c9.693-.43 16.3 6.71 16.3 18.64 0 10.12-4.475 15.12-7.245 16.94-2.663 1.7-5.858 2.23-8.842 2.23-10.227 0-15.66-7.46-15.66-18.33 0-11.4 5.752-19.18 15.447-19.5zm78.41 18.64c.104-13.75-7.565-26.64-24.185-26.64-19.496 0-25.036 15.87-25.036 27.06 0 13.21 7.352 26.2 24.717 26.2 15.34 0 24.395-11.4 24.503-26.64zm-9.27 0c-.106 5.11-1.173 19.81-15.34 19.81-10.974 0-15.342-8.74-15.342-19.29 0-11.51 4.58-20.35 15.98-20.35 5.752 0 12.25 2.87 14.168 12.78.32 1.49.64 3.83.533 7.03zm14.497-25.04v50.18h8.523v-23.22c0-4.58-.107-8.95 2.13-12.68 2.45-4.05 6.712-5.97 11.612-5.97 1.38 0 2.45.1 3.51.21v-9.16c-3.41.1-12.47.32-17.26 9.8v-9.16h-8.53zM327.33 81.7h-8.734v15.88h-7.99v7.03h7.99v32.6c-.107 6.607-.107 11.4 9.693 11.4 3.19 0 6.71-.64 8.2-.852v-7.03c-1.71.536-3.94 1.175-5.54 1.175-3.62 0-3.62-2.557-3.62-8.523v-28.764h9.16v-7.03h-9.16V81.71z"/><path fill="{{ fill|default('#00447C') }}" d="M90.71 119.57l19.1 29.845h11.144l-19.698-30.44c3.382-.6 16.614-2.887 16.614-19.3 0-6.468-2.19-12.337-7.362-16.216-5.472-4.18-11.242-4.18-20.99-4.28H63.452v70.23h9.153v-29.84H90.71zM72.606 86.94H90.71c5.373 0 9.95-.1 13.63 2.983 3.98 3.283 4.178 8.06 4.178 9.85 0 5.074-2.288 9.75-8.754 11.34-2.786.697-5.57.697-8.556.697H72.605V86.94z"/><path fill="{{ fill|default('#00447C') }}" d="M79.904 7.67v1.375h2.088c-.142 1.484-1.187 1.947-2.065 1.947-1.364 0-2.373-1.056-2.373-2.895 0-1.65.772-3.025 2.35-3.025 1.424 0 1.874 1.198 2.03 1.66l1.492-.604c-.51-1.4-1.79-2.466-3.534-2.466-2.302 0-4.044 1.85-4.044 4.483 0 2.254 1.363 4.316 3.95 4.316.7 0 1.54-.18 2.29-.92v.71h1.338V7.67h-3.522zm10.498 4.577h1.552V9.14h1.4l1.662 3.107h1.79l-1.86-3.404c.473-.142 1.646-.7 1.646-2.3 0-.974-.403-1.638-.925-2.065-.734-.592-1.482-.592-2.597-.604h-2.668v8.373zm2.276-7.022c.926 0 1.33.012 1.66.178.654.332.666.95.666 1.127 0 1.222-1.128 1.282-1.472 1.293-.296.012-.498.024-1.032.024h-.546V5.225h.724zm16.546.047V3.875h-5.953v8.373h6.25v-1.41h-4.7V8.594h4.03v-1.35h-4.03V5.27h4.41zm11.15 6.975h1.672l-2.858-8.373h-1.78l-2.82 8.373h1.67l.487-1.637h3.143l.486 1.637zm-3.214-3l1.162-3.855 1.15 3.856h-2.312zm15.196-5.372h-6.143v1.422h2.266v6.95h1.56v-6.95h2.31V3.874zm11.873 1.397V3.875h-5.96v8.373h6.25v-1.41h-4.71V8.594h4.03v-1.35h-4.04V5.27h4.41zm6.73 6.975h1.55V9.14h1.4l1.66 3.107h1.79l-1.86-3.404c.47-.142 1.64-.7 1.64-2.3 0-.974-.41-1.638-.93-2.065-.74-.592-1.49-.592-2.6-.604h-2.67v8.373zm2.27-7.022c.92 0 1.33.012 1.66.178.65.332.66.95.66 1.127 0 1.222-1.13 1.282-1.47 1.293-.3.012-.5.024-1.04.024h-.55V5.225h.72zm43.25 7.022h3.27c.95 0 1.36-.012 1.89-.2 1-.356 1.49-1.21 1.49-2.17 0-1.295-.87-2.042-1.79-2.207.45-.083.78-.26 1.04-.605.23-.32.35-.77.35-1.14 0-.913-.63-1.66-1.47-1.908-.41-.118-.7-.13-1.82-.142h-2.99v8.372zm2.53-7.093c1.14.012 1.3.023 1.64.213.32.19.48.51.48.83 0 .38-.23.7-.56.867-.29.154-.68.167-1.07.167-.19.02-.51.02-.95.02h-.54V5.16h.99zm.57 3.274c.53 0 1.41 0 1.79.677.12.213.15.44.15.63 0 .402-.17.723-.38.877-.41.285-.65.285-1.58.285h-1.54v-2.48l1.55.01zm14.71 3.82h1.67l-2.86-8.374h-1.78l-2.83 8.373h1.67l.485-1.637h3.147l.486 1.637zm-3.22-3l1.16-3.856 1.15 3.856h-2.31zm15.19-5.373h-6.148v1.422h2.263v6.95h1.564v-6.95h2.31V3.874zM239.4 8.06c.01-2.855-1.932-4.4-4.01-4.4-2.29 0-4.02 1.85-4.02 4.416 0 1.056.285 2.147 1.115 3.108.853.984 1.826 1.28 2.882 1.28 2.575 0 4.02-2.002 4.032-4.4zm-1.564.18c-.035 2.02-1.376 2.778-2.42 2.778-1.39 0-2.433-1.127-2.433-3.014 0-1.743.96-2.906 2.396-2.906 1.65 0 2.49 1.508 2.45 3.145zm12.94 1.555l-3.7-5.918h-1.41v8.373h1.527l-.095-5.87 3.665 5.87h1.36V3.874h-1.54l.192 5.917zm16.3 2.455h1.552V9.14h1.4l1.66 3.107h1.79l-1.86-3.404c.473-.142 1.646-.7 1.646-2.3 0-.974-.403-1.638-.925-2.065-.74-.592-1.48-.592-2.6-.604h-2.67v8.373zm2.276-7.023c.925 0 1.33.012 1.66.178.653.332.666.95.666 1.127 0 1.223-1.13 1.283-1.475 1.294-.297.012-.498.024-1.032.024h-.54V5.225h.73zm17.768 2.836c.01-2.858-1.93-4.4-4.01-4.4-2.29 0-4.02 1.85-4.02 4.413 0 1.056.286 2.147 1.116 3.108.854.984 1.826 1.28 2.882 1.28 2.576 0 4.022-2.002 4.034-4.4zm-1.562.18c-.035 2.016-1.376 2.775-2.42 2.775-1.39 0-2.433-1.127-2.433-3.014 0-1.743.96-2.906 2.396-2.906 1.65 0 2.5 1.508 2.46 3.145zm12.976-4.365V8.94c0 .7 0 1.174-.463 1.59-.46.402-1.09.414-1.34.414-.49 0-1.37-.095-1.69-.9-.12-.32-.1-.666-.1-1.02v-5.15h-1.56V8.87c.01 1.043.01 1.304.12 1.67.19.63.72 1.352 1.72 1.696.48.166.98.225 1.49.225.57 0 1.68-.07 2.53-.81.89-.76.89-1.54.9-2.49V3.88h-1.57zm11.872 3.795v1.375h2.088c-.142 1.484-1.186 1.947-2.063 1.947-1.36 0-2.37-1.056-2.37-2.895 0-1.65.77-3.026 2.35-3.026 1.43 0 1.88 1.198 2.03 1.66l1.49-.604c-.51-1.4-1.79-2.466-3.53-2.466-2.3 0-4.04 1.85-4.04 4.483 0 2.254 1.37 4.316 3.95 4.316.7 0 1.55-.188 2.29-.923v.71h1.34V7.67h-3.52zm16.415-2.398v-1.4h-5.95v8.374h6.25v-1.41h-4.71V8.59h4.04V7.24h-4.03V5.27h4.41z"/></g>
</svg>
