{% if width is defined %}{% set height = (256.777/463.246) * width %}{% endif %}
<svg xmlns="http://www.w3.org/2000/svg" width="{{width|default('463.246')}}px" height="{{height|default('256.777')}}" viewBox="168.106 170.991 463.246 256.777">
<path fill="{{fill|default('#555')}}" d="M294.054 219.52l5.766-20.661 8.168 10.09 6.727-14.895 3.363 8.168 12.973-8.168-10.09 16.817 11.051-1.442-9.61 9.129 9.61 3.844-13.454 2.883 5.766 8.168-14.415 1.441 28.349 5.766-8.168-11.532 28.349-2.402-23.063-10.09 13.453-12.973-14.414-.48 18.258-32.192-30.751 23.063-8.168-23.063-6.727 27.387-12.492-13.454-.481 34.596zm236.396 15.375s-4.324 38.919-8.168 59.58c-3.844 20.66-13.934 62.462-13.934 62.462l25.465-.961 13.935-82.162-2.883 81.681h25.945l27.388-86.967-16.816 86.967 25.945.961s5.285-41.321 10.09-67.267c4.806-25.946 13.935-63.423 13.935-63.423l-40.841 2.883-24.505 85.045 4.805-83.123-40.361 4.324zM325.766 270.45l-37.478 97.058-4.324-41.321 28.349-53.333-28.829 6.246s-3.363 8.168-4.805 12.012c-1.441 3.844-17.297 31.231-17.297 31.231l10.09-40.841-29.79 7.688s-2.883 24.504-8.648 48.048c-5.766 24.024-14.415 54.294-14.415 54.294l30.75-6.246 7.208-41.802s3.363 15.375 3.844 21.622c.48 6.246.48 12.492 0 18.738l52.853-9.129 4.805-13.453 16.817-2.884-1.922 12.493 29.79-2.883s.48-28.829 3.844-56.217c3.363-27.387 6.247-51.892 6.247-51.892l-47.089 10.571zm13.453 60.061l-12.973 2.402 16.817-47.087-3.844 44.685zm98.018-35.075c7.207-9.61 10.57-21.141 9.609-33.153-1.922-12.012-10.57-12.012-14.414-11.531-11.532.961-48.048 7.688-48.048 7.688s-3.844 24.024-6.246 45.165c-2.402 21.142-13.454 64.385-13.454 64.385l46.126-4.805s16.817-2.884 20.181-14.415 7.688-26.907 4.324-36.036c-2.402-5.285-8.168-8.648-13.934-7.688 6.247-1.442 11.532-4.806 15.856-9.61zm-27.868 36.036c-.48 3.363-1.441 6.727-3.363 9.609-.961 1.441-1.922 1.922-3.844 2.402h-5.766l4.805-24.505h7.207c.961 0 .961.48 1.922 1.922 0 3.365 0 7.208-.961 10.572zm5.766-38.919c-2.402 3.363-6.246 4.805-10.09 4.805l4.324-22.583c2.402-.48 4.805-.48 7.207-.48 0 0 .961-.48 1.922 2.402.481 5.765-.961 11.051-3.363 15.856zm52.853-48.529l-36.517 116.757 26.906-1.923 4.806-15.375 15.375-.48-.961 14.414 27.388-.48s.48-30.75 2.402-63.423c2.402-32.673 4.805-56.216 4.805-56.216l-44.204 6.726zm14.414 67.267l-12.012.961 14.895-49.97-2.883 49.009zM209.009 400.66s8.168-39.398 14.415-64.864c4.324-18.259 6.727-36.517 8.168-55.255l55.735-10.571 2.883-.961c-24.024-12.012-52.372-12.012-75.916 0l-6.727-13.934c-1.922-2.402-5.285-3.363-8.168-2.402-5.285 1.441-10.571 4.324-14.895 7.688-1.922-3.844-2.883-8.168-2.402-12.012.961-4.324 3.363-7.688 7.207-9.609 8.649-6.246 21.142-1.922 36.036 2.883 12.012 3.844 24.024 8.168 36.036 7.207 28.348-1.441 50.931-24.985 51.892-25.946 1.922-1.922 1.922-5.285 0-6.727-1.922-1.922-5.286-1.922-7.208 0 0 0-20.661 21.141-45.165 22.583-10.09.48-21.622-3.363-32.673-6.727-15.855-5.286-32.192-10.571-44.685-1.922-5.766 3.844-9.609 9.61-11.051 16.336-.961 7.208.961 14.415 4.805 20.18-2.883 2.883-5.285 5.766-7.207 9.129-1.442 2.883-2.403 6.246-1.442 9.609l14.895 10.571c-26.907 37.958-17.778 90.33 20.661 116.757 38.438 26.426 91.292 17.297 118.198-20.661 2.402-3.363 4.805-7.207 6.727-11.531L209.009 400.66zm-27.387-112.912c-6.246-4.805-6.727-7.688-.961-13.453.961-.961 1.922-2.402 3.363-.48 2.883 3.363 5.766 7.207 8.168 11.051.48.48.48.961.48 1.441-1.441 1.441-2.883 2.883-4.325 4.805-1.441 1.441-2.402.48-3.363-.481-1.441-.962-2.401-1.923-3.362-2.883zm1.441 50.45c-1.441 15.375-.48 31.231 3.844 46.606-19.7-28.349-13.453-68.229 9.61-90.811-7.688 13.454-12.013 28.83-13.454 44.205z"/>
</svg>
