{% if width is defined %}{% set height = (166/486) * width %}{% endif %}
<svg width="{{width|default('486')}}" height="{{width|default('166')}}" viewBox="0 0 486 166" xmlns="http://www.w3.org/2000/svg"><g fill="{{fill|default('#1A1919')}}" fill-rule="evenodd"><path d="M295.184 108.972l24.675-2.574v-3.59L313.94 101c-3.386-1.095-3.895-1.497-3.895-3.753V21.792c0-6.912.288-15.782 1.013-21.646h-4.329l-22.941 3.461v3.006l5.192 1.501c6.06 1.803 6.204 2.256 6.204 7.668v25.25c-3.029-4.21-8.798-6.912-15.002-6.912-19.476 0-33.327 16.683-33.327 37.274 0 21.646 10.675 36.825 28.278 36.825 9.81 0 16.015-5.258 20.051-12.028v12.781zm-11.541-10.221c-12.552 0-20.917-9.319-20.917-28.409 0-17.585 8.076-29.61 20.628-29.61 6.06 0 9.523 2.403 11.83 3.758v47.644c-2.74 3.762-6.924 6.617-11.541 6.617zM380.427 82.768V47.495c0-2.403-.722-2.403-4.472-3.907l-4.33-1.804V38.33l21.066-1.957h3.463c-.291 3.757-.867 10.322-.867 17.987v24.049c0 12.327 2.021 20.743 12.987 20.743 8.219 0 12.55-5.411 15.148-11.119V50.051c0-4.21-.721-4.21-4.616-5.864l-5.628-2.403V38.33l21.643-1.957h4.325c-.721 5.86-1.007 14.73-1.007 21.642v37.53c0 2.457.603 4.526 3.894 5.622l5.05 1.678v3.55l-23.661 1.099V92.54c-2.164 6.313-8.8 15.631-20.921 15.631-14.426 0-22.074-9.168-22.074-25.403M452.239 102.808l4.905-1.351c4.04-1.056 4.618-.902 4.618-3.006V15.932c0-4.207-.578-5.113-4.04-6.613l-5.195-2.257V3.907L473.303.146h4.329c-.578 5.266-1.008 14.584-1.008 21.796v76.509c0 2.104.576 1.95 4.468 3.006l4.908 1.351v3.608h-33.761v-3.608"/><path d="M325.307 102.808l4.905-1.351c4.037-1.056 4.616-1.056 4.616-3.006V45.542h-9.955l2.454-7.212h7.644v-4.813c0-22.095 11.255-33.371 30.154-33.371 6.49 0 12.263 3.009 12.263 9.925 0 5.258-4.038 7.964-7.502 7.964-4.041 0-10.101-3.155-7.933-13.226-6.204 0-12.266 5.561-12.266 21.493V38.33h16.017v7.212h-16.017v51.857c0 2.104.146 2.553 4.042 3.455l9.521 1.954v3.608h-37.943v-3.608M167.899 102.808l4.904-1.351c4.04-1.056 4.619-.902 4.619-3.006V49.449c0-3.006-.579-4.057-5.772-6.46l-3.607-1.654V38.33l19.909-4.21h4.329v15.478c4.04-8.416 10.822-15.478 22.073-15.478 14.718 0 21.932 9.771 21.932 24.647v39.684c0 2.104.575 1.95 4.472 3.006l4.905 1.351v3.608h-33.615v-3.608l4.905-1.351c4.184-1.205 4.616-.902 4.616-3.006V62.678c0-10.071-1.877-19.843-13.562-19.843-8.078 0-13.418 6.015-15.726 11.426v44.19c0 2.104.577 1.95 4.472 3.006l4.905 1.351v3.608h-33.759v-3.608M145.213 18.937c4.907 0 9.089-4.057 9.089-9.469 0-5.112-4.038-9.468-9.089-9.468-5.048 0-9.232 4.356-9.232 9.468 0 5.412 4.184 9.469 9.232 9.469M127.9 106.416h33.761v-3.608l-4.905-1.351c-3.897-1.056-4.472-.902-4.472-3.006V34.12h-4.329l-19.911 4.21v3.005l3.608 1.654c5.194 2.403 5.771 3.454 5.771 6.46v49.002c0 2.104-.577 1.95-4.617 3.006l-4.906 1.351v3.608M.935 102.808l4.906-1.351c4.04-1.056 4.616-.902 4.616-3.006V49.449c0-3.006-.576-4.057-5.77-6.46 0 0-2.743-1.505-3.608-1.654V38.33l19.911-4.21h4.329v15.478C29.212 41.335 36.428 34.12 47.39 34.12c10.966 0 17.747 5.258 20.489 16.081h.866c3.895-8.267 11.396-15.483 22.217-15.483 14.862 0 21.352 10.071 21.352 24.652v39.081c0 2.104.579 1.95 4.476 3.006l4.904 1.351v3.608H88.221v-3.608l4.906-1.351c4.038-1.056 4.617-.902 4.617-3.006V63.277c0-10.071-1.586-19.839-13.42-19.839-7.644 0-13.416 7.515-15.434 12.324v42.689c0 2.104.576 1.95 4.472 3.006l4.904 1.351v3.608H44.65v-3.608l4.905-1.351c4.184-1.205 4.618-.902 4.618-3.006V62.678c0-10.071-1.299-19.843-13.274-19.843-6.204 0-11.398 2.557-15.58 11.426v44.041c0 1.8.287 2.099 3.029 2.855l6.06 1.501v3.758H.935v-3.608M38.386 129.75h2.535v5.444c0 .931-.037 4.847-.112 6.638h.112c1.081-2.275 3.319-3.394 5.966-3.394 3.58 0 6.601 1.977 6.601 7.458v11.149h-2.536v-10.814c0-4.101-1.865-5.593-4.587-5.593-2.983 0-5.444 2.424-5.444 6.861v9.546h-2.535V129.75M60.574 146.231h10.888c-.261-3.803-2.274-5.593-5.258-5.593-2.797 0-5.072 2.126-5.63 5.593zm13.088 7.868c-1.753 2.237-4.176 3.356-7.271 3.356-5.445 0-8.577-3.728-8.577-9.471 0-5.631 3.655-9.546 8.39-9.546 4.549 0 7.83 3.207 7.83 8.651v1.045H60.461c.038 4.288 2.349 7.121 6.265 7.121 2.125 0 3.803-.857 5.221-2.684l1.715 1.528zM86.228 155.255c3.282 0 5.855-2.684 5.855-7.308s-2.573-7.309-5.855-7.309c-3.281 0-5.854 2.872-5.854 7.458s2.573 7.159 5.854 7.159zm-.335-16.817c2.834 0 5.034 1.193 6.19 3.692h.111v-3.282h2.425v18.197h-2.425v-3.244h-.111c-1.194 2.499-3.581 3.654-6.414 3.654-4.512 0-7.942-3.505-7.942-9.359s3.653-9.658 8.166-9.658zM100.585 157.045h2.536V129.75h-2.536zM110.728 140.899h-4.363v-2.051h4.363v-5.518h2.535v5.518h4.364v2.051h-4.364v16.146h-2.535v-16.146M120.871 129.75h2.535v5.444c0 .931-.037 4.847-.111 6.638h.111c1.081-2.275 3.319-3.394 5.967-3.394 3.579 0 6.6 1.977 6.6 7.458v11.149h-2.536v-10.814c0-4.101-1.864-5.593-4.586-5.593-2.984 0-5.445 2.424-5.445 6.861v9.546h-2.535V129.75M153.91 157.045v-2.983h-.112c-1.119 2.312-3.393 3.393-5.966 3.393-3.58 0-6.452-1.976-6.452-7.457v-11.15h2.536v10.814c0 4.102 1.827 5.593 4.549 5.593 2.984 0 5.333-2.386 5.333-6.972v-9.435h2.535v18.197c0 6.34-3.244 8.502-7.979 8.502-2.611 0-5.408-.969-7.085-2.983l1.641-1.715c1.416 1.827 3.617 2.498 5.481 2.498 3.058 0 5.519-1.119 5.519-6.302M170.355 138.848h2.423v2.984h.113c1.081-2.275 3.318-3.394 5.779-3.394 2.536 0 4.736 1.119 5.706 3.878 1.23-2.759 3.579-3.878 6.264-3.878 3.393 0 6.19 1.977 6.19 7.234v11.373h-2.536v-11.038c0-3.877-1.528-5.369-4.176-5.369-2.796 0-5.258 2.424-5.258 6.973v9.434h-2.536v-11.038c0-3.877-1.64-5.369-4.176-5.369-2.796 0-5.257 2.424-5.257 6.936v9.471h-2.536v-18.197M202.537 157.045h2.535v-18.197h-2.535v18.197zm-.112-23.715h2.759v-3.58h-2.759v3.58zM211.039 138.848h2.424v2.984h.111c1.081-2.275 3.319-3.394 5.967-3.394 3.579 0 6.6 1.977 6.6 7.458v11.149h-2.536v-10.814c0-4.101-1.864-5.593-4.586-5.593-2.984 0-5.445 2.424-5.445 6.936v9.471h-2.535v-18.197M238.969 155.255c3.207 0 5.705-2.535 5.854-6.972v-.672c-.149-4.401-2.647-6.973-5.854-6.973-3.281 0-5.855 2.872-5.855 7.458s2.574 7.159 5.855 7.159zm-.336-16.817c2.797 0 5.034 1.193 6.19 3.655h.113c-.113-1.79-.113-5.855-.113-6.787v-5.556h2.535v27.295h-2.422v-3.281h-.113c-1.156 2.536-3.58 3.691-6.413 3.691-4.512 0-7.944-3.505-7.944-9.359s3.656-9.658 8.167-9.658zM253.288 157.045v-4.176h3.207v3.952l-1.566 6.041h-1.492l1.194-5.817h-1.343M270.479 129.75h2.536v5.444c0 .931-.038 4.847-.113 6.638h.113c1.081-2.275 3.318-3.394 5.965-3.394 3.581 0 6.6 1.977 6.6 7.458v11.149h-2.536v-10.814c0-4.101-1.863-5.593-4.586-5.593-2.983 0-5.443 2.424-5.443 6.861v9.546h-2.536V129.75M292.666 146.231h10.889c-.261-3.803-2.275-5.593-5.259-5.593-2.796 0-5.07 2.126-5.63 5.593zm13.089 7.868c-1.753 2.237-4.176 3.356-7.272 3.356-5.443 0-8.576-3.728-8.576-9.471 0-5.631 3.654-9.546 8.389-9.546 4.551 0 7.831 3.207 7.831 8.651v1.045h-13.572c.036 4.288 2.348 7.121 6.264 7.121 2.125 0 3.804-.857 5.22-2.684l1.716 1.528zM318.321 155.255c3.282 0 5.855-2.684 5.855-7.308s-2.573-7.309-5.855-7.309c-3.281 0-5.855 2.872-5.855 7.458s2.574 7.159 5.855 7.159zm-.336-16.817c2.835 0 5.035 1.193 6.191 3.692h.112v-3.282h2.424v18.197h-2.424v-3.244h-.112c-1.194 2.499-3.58 3.654-6.414 3.654-4.512 0-7.943-3.505-7.943-9.359s3.655-9.658 8.166-9.658zM332.678 157.045h2.536V129.75h-2.536zM342.821 140.899h-4.363v-2.051h4.363v-5.518h2.535v5.518h4.363v2.051h-4.363v16.146h-2.535v-16.146M352.964 129.75h2.536v5.444c0 .931-.038 4.847-.113 6.638h.113c1.081-2.275 3.318-3.394 5.966-3.394 3.579 0 6.6 1.977 6.6 7.458v11.149h-2.536v-10.814c0-4.101-1.864-5.593-4.587-5.593-2.983 0-5.443 2.424-5.443 6.861v9.546h-2.536V129.75M386.002 157.045v-2.983h-.111c-1.119 2.312-3.394 3.393-5.966 3.393-3.58 0-6.451-1.976-6.451-7.457v-11.15h2.535v10.814c0 4.102 1.827 5.593 4.55 5.593 2.983 0 5.332-2.386 5.332-6.972v-9.435h2.536v18.197c0 6.34-3.244 8.502-7.981 8.502-2.61 0-5.406-.969-7.085-2.983l1.642-1.715c1.416 1.827 3.616 2.498 5.481 2.498 3.058 0 5.518-1.119 5.518-6.302M402.448 157.045h2.536V129.75h-2.536zM410.95 157.045h2.536v-18.197h-2.536v18.197zm-.111-23.715h2.759v-3.58h-2.759v3.58zM420.198 140.899h-3.617v-2.051h3.617v-3.206c0-3.954 2.014-5.892 5.78-5.892h1.977v2.2h-1.754c-2.498 0-3.468 1.23-3.468 3.803v3.095h4.624v2.051h-4.624v16.146h-2.535v-16.146M431.46 146.231h10.888c-.26-3.803-2.274-5.593-5.258-5.593-2.797 0-5.071 2.126-5.63 5.593zm13.088 7.868c-1.752 2.237-4.176 3.356-7.271 3.356-5.444 0-8.576-3.728-8.576-9.471 0-5.631 3.654-9.546 8.389-9.546 4.55 0 7.831 3.207 7.831 8.651v1.045h-13.573c.037 4.288 2.349 7.121 6.265 7.121 2.125 0 3.803-.857 5.22-2.684l1.715 1.528z"/></g></svg>
