<svg xmlns="http://www.w3.org/2000/svg" id="Layer_1" width="284.752" height="347.793" viewBox="246.435 74.811 284.752 347.793"><path id="Back_Circle" fill="#A9C2D3" d="M405.27 74.81c17.832 0 35.228 1.08 50.064 9.733 16.186 9.44 33.513 26.047 39.612 44.14 7.337 21.765 18.72 23.07 18.72 69.108 0 13.8-5.44 27.58-8.32 36.66-5.927 18.69-12.47 38.32-24.77 51.8-11.96 13.11-26.568 23.12-42.828 28.91-10.254 3.65-21.163 5.62-32.477 5.62-33.35 0-71.42-19.22-80.67-45.73-4.6-13.18-13.38-22.38-17.74-36.49-3.94-12.74-6-26.48-6-40.75 0-18.14-5.5-27.7 5.71-50.86 9.59-19.82 21.17-32.27 37.31-44.88 17.46-13.64 38.61-27.23 61.41-27.23z"/><g id="Layer_1_1_"><g id="Table"><path fill="#729F9A" d="M302.778 252.525c-.505.63-1.136 1.073-1.957.758-.88-.316-1.07-1.074-1.07-1.957v-7.387c0-1.33 0-1.33-1.32-1.39-6.44-.32-12.88-.63-19.32-.95-5.74-.32-11.49-.57-17.23-.89-4.61-.26-9.15-.51-13.76-.82-1.07-.07-1.07-.13-1.07-1.14v-5.31c0-.63.07-1.27-.5-1.83-.31-.32.25-.44.51-.63 3.66-1.01 7.33-.13 10.99-.07 2.78.06 5.56.25 8.34.38 5.56.25 11.12.5 16.61.75 5.3.25 10.6.38 15.84.82 2.28.19 4.55.25 6.82.31 5.49.19 10.99.44 16.48.76 7.45.38 14.9.69 22.35 1.07 5.36.31 10.79.5 16.16.75s10.67.38 16.04.82c2.4.19 4.86.26 7.26.32 7.7.25 15.41.76 23.11 1.01 6.44.25 12.88.57 19.32.88l19.83.95c6.44.31 12.88.63 19.32.88 6.44.31 12.88.63 19.32.88 6.51.25 13.01.63 19.51.94 3.47.19 6.95.19 10.42.57 1.39.12 2.4-.38 3.35-1.39 3.22-3.35 6.69-6.44 9.73-9.98.82-.95 1.64-1.89 2.9-2.4.38 0 .51.19.51.57v7.39c0 .63-14.83 16.6-15.53 16.54-3.34-.19-45.64-1.64-47.79-1.96-.82-.13-1.58.19-2.27.69-2.4 1.64-8.14 7.45-9.09 8.2-.88.69-1.83 1.39-3.03.82-1.14-.57-1.14-1.71-1.14-2.78v-5.18c0-2.52-.19-2.71-2.77-2.71-3.22 0-136.93-6.57-138.19-5.49-2.27 1.83-7.77 7-8.59 7.13z"/><path fill="#95C3BE" d="M530.682 229.167c-2.525 2.715-11.237 11.616-12.94 13.384-.57.57-1.138.89-1.958.89-3.157-.06-56.44-2.71-56.503-2.71-2.9.19-81.18-3.34-83.96-3.91-.12 0-125.5-6-128.28-5.81 8.71-3.53 32.52-12.81 34.22-12.56.32.07 54.04 1.83 54.17 2.53.45 2.47-.19 6.7.19 9.16.19 1.33 28.6 2.97 33.78 3.41 2.28.19 4.55.25 6.82.32 5.49.19 10.99.51 16.48.76 4.3.19 8.65.32 12.94.7 1.14.38 2.34.38 3.41.13 6.76-1.2 13.57-2.27 20.33-3.6 1.2.19 2.4.44 3.6.38.7 0 1.27.32 1.71.82 1.33 1.58 3.03 2.4 5.12 2.66 2.59.32 5.18.7 7.83.19 4.8-.82 6.69-2.97 6.88-7.83 0-.69-.19-1.51.51-2.14 3.1.06 68.31 2.78 75.7 3.28z"/></g><g id="Chair"><path fill="#437C7F" d="M461.553 277.02c0 1.58-.126 3.157 0 4.672.19 1.83-.505 3.473-.694 5.178-.07.693-3.98 5.05-5.75 6.565-1.64 1.325-3.6 2.146-5.49 3.093-1.08.695-2.4.82-3.6 1.2-1.07.315-1.45.946-1.2 2.02.44 1.894.57 3.787.63 5.682.13 4.798.25 9.532.25 14.33 0 4.04-.07 8.145 0 12.185 0 .632-.7 56.124-1.08 57.387-.19.568-.51.946-1.08 1.2-3.54 1.262-6.95.883-10.17-1.01-.63-.38-.7-1.012-.7-1.58-.06-1.894-.13-3.85-.06-5.744.13-3.725-.51-65.468-.32-75.253.06-1.768-.13-3.535-.13-5.303 0-1.137-.57-1.515-1.58-1.452-4.8.38-9.6.127-14.33.19-1.26 0-2.52-.253-3.79-.253-.44 0-.95-.064-1.01-.695 1.26-1.01 2.78-1.578 4.16-2.398 2.27-1.263 4.36-2.715 6.44-4.167 2.21-1.515 4.29-3.093 6.37-4.798.12-.13.37-.13.56-.19 1.51-.82 3.22-.7 4.86-.95 7.07-1.14 14.08-2.34 20.58-5.37 2.14-1.01 4.29-2.09 5.87-3.92.38-.32.63-.76 1.2-.64z"/><path fill="#6A999C" d="M449.747 296.086c.19-.127.38-.316.568-.44 2.525-.948 4.608-2.526 6.692-4.17 1.136-.945 2.083-1.956 2.777-3.28.127 2.335.253 4.734.568 7.07.063.44.315 65.214.315 69.38 0 .57-.062 1.074-.19 1.643-.63 2.2-1.324 2.84-3.598 2.84-.89 0-4.93-.45-5.88-1.01-1.08-.64-1.2-1.83-1.2-2.97-.06-2.09 0-4.17 0-6.19v-15.72c0-2.97.06-5.94.06-8.9.19-1.33-.13-26.96-.19-36.87-.13-.51 0-.89.06-1.39zm-51.83 10.67c0 7.64 0 15.214.062 22.853 0 1.57.18 3.15.18 4.73 0 1.39.19 2.77 0 4.16-.19 1.39.06 2.9.06 4.29 0 1.57-.57 2.4-.89 1.2-1.01-4.23-1.58-8.59-3.29-12.69-.76-1.83-4.36-12.5-5.24-14.84-.44-1.2-.44-2.53-1.39-3.41.12-.44 6.06-3.6 8.65-5.3.57-.38 1.2-.76 1.83-1.01z"/><path fill="#2F6264" d="M461.553 277.02c-1.768 2.336-4.166 3.726-6.755 4.925-5.177 2.462-10.732 3.6-16.35 4.672-3.095.568-6.25 1.073-9.408 1.263 1.01-.947 1.957-1.895 2.968-2.777 3.725-3.03 6.63-6.692 8.775-10.985.884-1.768 1.136-3.725 1.578-5.618.45-1.768.26-3.6.32-5.43 4.23.947 8.4 2.083 12.38 3.914 2.09.947 4.04 2.083 5.62 3.787 1.64 1.77 2.46 3.85.89 6.25z"/></g><g id="Legs"><path fill="#775F4A" d="M404.482 372.35c.252.946 9.66 19.885 10.417 22.474.06.253.06.568.06.884-.89 3.22-2.84 5.556-5.87 7.008-3.6 1.768-7.39 1.704-11.24 1.136-1.14-.19-2.21-.567-3.1-1.39-1.58-1.577-2.97-3.28-4.17-5.176-1.27-1.957-2.47-3.914-3.92-5.745-.32-.44-.63-.88-.89-1.38-1.71-3.22-3.66-6.25-5.68-9.28-2.59-3.85-4.93-7.89-7.7-11.55-2.53-3.28-4.42-7.01-6.95-10.29-.44-.57-.82-1.26-.95-2.02.95-.31-19.64-40.53-19.76-40.85-1.01-4.35-2.15-8.71-.13-13.13 1.26-2.84 27.27-55.05 28.03-55.17 7.51 1.27 20.71 5.24 27.78 8.08 3.09 1.27 6.38 1.65 9.6 2.02 7.07.82 14.08.82 21.09-.44 2.02-.38 4.04-.88 5.8-2.08.76-.5 1.45-1.01 1.89-1.83-.57-4.73 4.1 6 4.17 9.35.5 6.95-1.7 12.94-6.25 18.18-2.27 2.59-4.8 4.86-7.45 7.01-2.9 2.21-5.74 4.42-8.77 6.44-2.78 1.89-5.75 3.6-8.78 5.05l-.38.19c-.19.13-.38.19-.57.31-2.28 1.58-4.8 2.59-7.2 3.85-1.9 1.01-3.92 1.9-5.68 3.1-2.97 1.77-5.75 3.91-8.97 5.3-.76.32-.89.76-.63 1.58.75 2.21 1.51 4.36 2.52 6.51 1.07 2.21 4.86 13.76 5.49 17.43.69 3.16 7.57 32.26 8.14 34.47z"/><path fill="#997F69" d="M378.535 249.748c-.442.063-.884-.126-1.326.126-.26.38.12.695.18.947.06.26.31.45.31.7-.07 2.21 1.39 3.85 1.95 5.81.19.63.25 1.01-.38 1.52-1.26 1.08-1.96 2.65-2.97 3.98-2.46 3.41-10.55 13.14-12.06 14.65-1.33 1.33-8.15 9.73-10.1 12.19-1.01 1.27-5.43 7.7-6.76 9.54-2.34 3.22-3.35 13.64-2.9 15.03.25.89.44 1.77.88 2.53.44.25.57.7.75 1.07 1.64 4.11 3.47 8.15 5.18 12.19.12.26.25.51.38.82l.19.38c.12 1.33.94 2.53.88 3.92-.19.07-.32.26-.32.45-.19 2.78-1.9 15.03-2.02 17.68-.32 4.42-4.11 37.31-4.61 40.84-.32 2.02-.51 3.98-.7 6-.19 2.08-.51 2.72-2.91 3.28-1.01.89-2.34.95-3.54 1.01-2.4.07-4.86 0-7.26 0-3.47 0-5.87-2.02-8.33-4.1-.26-.06-.45-.25-.51-.5s-.07-.5-.07-.76c-.13-9.47-.26-18.94-.32-28.41 0-2.9.95-14.39.88-17.29.56-.06 1.76-21.78 1.7-25.44 0-5.18.94-8.84.82-14.01-.07-3.66.44-7.2-.32-10.73-.44-2.02-.89-5.55-2.97-6.63-.69-1.07-.5-3.15.44-4.29 3.09-3.66 6.31-7.13 9.53-10.73 2.84-3.22 5.74-6.37 8.52-9.59 1.13-1.77 3.22-3.28 5.3-4.99 4.1-3.72 19.13-16.16 20.07-17.11.95-.94 6.75-2.58 8.46-1.64.82.51 1.77.63 2.71.76.44.25 1.07.13 1.14.88z"/><path fill="#52432B" d="M418.182 400.694c.758 3.03 1.073 6.124 1.01 9.28 0 .82-.252 1.263-1.01 1.578-2.525.947-20.14 9.154-21.527 9.407-2.4.44-4.672 1.13-7.134 1.38-4.98.5-9.84.31-14.7-1.08-1.07-.32-1.95-.82-2.65-1.64-1.07-1.2-1.01-2.34.13-3.47.76-.7 1.64-1.2 2.53-1.64 1.9-1.02 3.79-2.09 5.75-3.1.19-.13.44-.13.69-.26.07-.06.19-.13.26-.13 3.79.94 7.77-.13 11.49 1.2.51.19 1.01.25 1.45.44 1.52.69 2.91.57 4.29-.38.32-.19.57-.44.95-.51 4.99-1.01 8.71-4.3 12.69-7.07 1.52-1.01 2.97-2.09 4.23-3.48.38-.38.82-1.01 1.58-.57z"/><path fill="#5C4938" d="M351.263 330.366c-.758-1.073-1.263-2.272-1.642-3.473-1.01-2.903-2.46-5.556-3.53-8.46-.19-.567-.25-2.777-.25-3.345.07-.947.25-1.01 1.2-1.137 1.45-.18 2.65.45 3.73 1.27 1.08.82 2.15 1.64 3.41 2.21 1.07.51 1.45 1.52 1.9 2.46 1.58 3.22 3.03 6.44 4.55 9.72 2.09 4.61 3.47 9.54 5.62 14.14.38.76 8.02 23.36 8.02 24.5-1.32-.82-9.09-10.92-9.72-11.17-2.27-3.66-8.71-15.72-9.59-18.11-1.07-2.71-2.4-5.24-3.41-7.95-.12-.19-.06-.5-.25-.63z"/><path fill="#7F7058" d="M343.056 406.44c.568.252 1.073 7.386.884 8.9-.063.568-.63.694-1.136.884-3.472 1.137-25.063 3.914-28.094 4.546-3.535.757-7.134.505-10.67.315-.63 0-1.2-.126-1.767-.442-.947-.44-1.326-1.136-.947-2.083.316-.758.694-1.578 1.39-2.146 1.198-.947 6.438-5.303 8.27-5.808 1.577-.632 3.156-.506 4.734-.063 1.136.315 2.272.694 3.22 1.263 1.705 1.073 3.472 1.073 5.366.568 3.85-1.137 7.828-1.83 11.742-2.904 1.957-.568 3.536-1.642 5.177-2.715.568-.38 1.136-.758 1.83-.316z"/><path fill="#775F4A" d="M321.907 294.318h.252c.5-.253.88-.316 1.38.252 1.13 1.2 1.95 2.59 2.78 3.914.63 1.01.38 2.146.63 3.22.38 1.58.76 14.08.12 17.172-.25 1.39-.38 2.778-.44 4.167-.13 3.094-1.77 21.022-1.77 21.4.12 2.842-1.26 10.923-1.83 10.29-.44-.566-2.15-46.273-1.96-50.06.12-2.653.06-5.367.5-8.02.12-.757.19-1.514.31-2.335z"/><path fill="#89746A" d="M418.182 400.694c-.315 0-.568.126-.82.38-2.146 2.398-4.356 4.86-6.882 6.754-2.083 1.578-11.49 4.735-13.005 5.62-.947.567-1.894.188-2.778-.19-2.65-.947-13.005-1.895-13.51-2.02 2.4-.127 4.293-1.77 6.502-2.463.63-.19 4.86-3.852 6.56-5.05.44-.316.76-.632.44-1.264l1.7.57c.82.32 1.7.57 2.59.57 1.07 0 2.21.13 3.28.26 1.83.19 3.53-.44 5.24-1.01 1.58-.5 5.68-3.91 5.93-4.92.25-.88.69-1.64 1.32-2.27.82 0 2.02 2.15 2.33 2.59.63.82 1.07 1.52 1.07 2.47z"/><path fill="#B7A298" d="M343.056 406.44c-.63 0-1.326 0-1.642.757-.063.19-.252.315-.442.44-2.21.885-4.23 2.274-6.63 2.78-4.103.82-8.143 1.893-12.183 2.84-.76.19-1.33.126-2.03-.253-1.58-.946-3.35-1.578-5.12-2.146-1.39-.44-2.78-.062-4.23-.19.5-.63 1.13-1.072 1.89-1.388 1.51-.694 2.71-1.894 4.04-2.84.44-.254.75-.633 1.2-.885 2.02-1.01 3.41-2.778 4.79-4.482.19-.19.25-.442.19-.694 1.26.25 2.27 1.13 3.22 1.89 1.45 1.2 3.09 1.64 4.86 1.7 2.59.12 5.24.06 7.83 0 1.07-.07 2.14-.38 3.22-.57-.13.75.31 1.45.25 2.21.06.44.63.5.76.82z"/><path fill="#DFB5A1" d="M369.444 248.548c-.38-.82 0-1.578 0-2.4 2.84.253 5.745.127 8.586.506.126 0 .315.063.442 0 3.157-.126 6.313.252 9.47.378 3.977.126 7.955.38 11.87.63 3.155.19 6.312.443 9.47.57 4.103.188 8.206.44 12.373.63l10.984.568c2.08.126 4.23.253 6.31.253.38 0 .69.126 1.01.252 0 .505-1.58 4.924-2.09 5.303-2.47 1.704-5.31 2.398-8.21 2.84-5.37.885-10.74.82-16.17.568-3.79-.19-7.52-.693-11.18-1.768-2.91-.82-5.68-1.957-8.53-3.03-1.77-.63-3.41-1.577-5.24-1.894-2.53-.505-4.93-1.326-7.51-1.705-.76-.06-10.48-.06-11.62-1.71z"/></g><g id="Face_and_phone"><path fill="#2C221D" d="M386.68 171.022c-1.706-.19-3.536-.063-5.115-1.01-.694-.38-1.515-.38-2.21-.38-2.713-.062-4.923-1.45-7.196-2.587-2.09-1.073-3.29-2.778-3.1-5.24.06-.884-.13-1.83.12-2.715.31-1.136-.07-1.642-1.14-2.02-3.41-1.073-5.18-3.536-5.5-7.07-.07-1.01.12-2.02.38-2.968.25-.947 0-1.515-.89-1.957-4.55-2.4-4.74-8.712-.45-11.68.63-.44 1.64-.63 1.89-1.388.25-.82-.7-1.326-1.08-2.02-1.26-2.652-.44-6.503 2.02-8.208 2.71-1.9 5.68-3.1 9.03-3.1h2.14c1.51 0 1.45 0 1.01-1.52-.7-2.4-.44-4.8.57-7.07 1.01-2.21 2.4-4.23 4.61-5.5 4.04-2.34 8.14-4.48 13.06-4.11.95.06 1.83.12 2.59.63.82.57 1.26.38 1.77-.44 1.7-2.97 4.04-5.24 6.94-7.08.63-.38 1.32-.63 2.02-.88 3.22-1.45 6.44-1.77 9.91-.89 1.83.5 3.72.82 5.62 1.26 2.14.5 4.04 1.58 5.87 2.65 2.33 1.39 4.61 2.9 6.94 4.29 3.72 2.21 6.5 5.36 8.84 8.96 1.13 1.7 1.26 3.79 1.2 5.87-.07.95.19 1.45 1.07 1.77 1.89.69 3.28 2.08 4.8 3.34.06.57.5 1.01.69 1.45.57 1.13 1.01 2.27 1.26 3.53.38 1.95-.13 3.6-1.14 5.17-.76 1.26-.69 1.2.25 2.15 2.14 2.21 3.28 4.92 4.23 7.77.57 1.7.5 3.6.38 5.43-.13 1.45-.82 2.84-1.96 3.79-.44.38-.57.76-.7 1.26-.56 1.96-1.13 3.85-1.83 5.75-.63 1.7-1.83 2.97-3.28 4.04-1.64 1.2-3.35 2.4-5.05 3.6-1.2 1.01-2.65 1.51-4.23 1.45-.51-.19-.57-.63-.57-1.14.13-3.73.13-7.52-.06-11.24 0-.19.06-.38.13-.57.06-.38.25-.76.44-1.08 1.9-2.78 1.14-5.37-.57-7.83-1.58-2.4-3.35-4.61-5.87-6.19-.82-.51-1.64-.95-2.65-.89-1.13-.13-2.08.38-3.09.88-.5.25-.88.63-1.45.69-.63-1.33-1.83-2.09-3.16-2.72-.89-.44-1.26-1.26-1.26-2.27.13-1.07-.32-1.83-1.07-2.65-2.47-2.53-4.61-5.24-5.62-8.65-.38-1.14-1.14-2.15-1.58-3.28-.26-.63-.82-.88-1.39-1.01-3.35-.82-6.44-2.34-9.41-4.1-.82-.51-1.39-.19-2.08.25-3.28 2.02-6.31 4.35-9.79 6.06-1.71.82-3.35 1.83-5.24 2.4-.89.25-1.39.69-1.46 1.83 0 1.7-.95 3.09-2.02 4.29-.82.88-1.14 1.7-.7 2.84.06.95-.51 1.32-1.26 1.64-1.77.82-2.21 1.58-1.9 3.54.12.82.25 1.7.06 2.52 0 .12.06.25.06.44.06.25.19.57.25.82.32 1.64.95 3.16 1.52 4.67.19 2.46.57 4.86 1.07 7.32.37 2.21 1.26 4.17 2.46 6.13 1.51 2.4 3.72 3.79 6.25 4.74.88.31 1.83.57 2.71.95.32.13.57.25.82.44.13.06.26.19.38.31.7 1.2 1.14 2.47.38 3.79-2.27 1.52-4.73 2.65-7.51 3.03-.31-.12-.82 0-1.26-.38z"/><path fill="#5E483E" d="M408.207 92.74c-2.462 1.83-5.05 3.346-6.944 5.808-.884 1.137-1.705 2.4-2.4 3.662-.82.126-2.397-1.136-3.408-1.263-4.987-.947-12.185 2.21-15.593 5.872-1.768 1.89-2.904 4.35-3.22 6.94-.19 1.51 0 3.03.694 4.35.82 1.51-.63 1.07-1.705 1.01-5.24-.13-13.57 1.57-13.57 8.33 0 1.32.63 2.52 1.45 3.53 1.14 1.45.57 1.51-1.13 2.4-2.08 1.07-4.04 3.72-3.53 6.18.25 1.32.32 3.28 1.39 4.29.76.63 1.83.82 2.59 1.32 1.33.82-.12 4.92.19 6.37.63 2.84 2.72 4.41 5.37 5.36 2.28.76.76 3.54.95 5.49.25 3.09 2.15 3.98 4.67 5.3 1.27.63 2.59 1.32 4.04 1.45 1.01.06 2.65.06 3.41.95-5.36 1.2-12.25-.25-14.77-5.62-1.2-2.53-2.71-2.84-4.92-4.48-2.02-1.46-3.47-3.6-4.16-6-.5-1.71-.12-3.1.07-4.8.13-.95 1.01-1.89.44-2.84-1.45-2.59-3.47-3.41-3.35-6.88.13-2.65 1.58-5.56 3.6-7.26.76-.63 2.84-1.39 1.96-2.65-1.01-1.45-1.58-3.47-1.45-5.24.38-5.24 5.31-9.47 10.1-10.61.95-.25 2.09.25 2.28-1.01.26-1.51.32-2.9.89-4.35 1.27-2.97 3.54-5.24 6.51-6.44.94-.38 2.71-.51 3.03-1.71.31-1.14.75-2.21 1.51-3.09 1.64-2.02 4.3-2.65 6.82-2.97 1.58-.19 3.22-.19 4.8.25 1.07.31 2.34 1.64 3.47.94 3.22-1.77 6.51-2.53 9.98-2.65-1.83 1.39-2.02.12 0 0z"/><path fill="#DFB5A1" d="M441.288 165.215c1.325-.442 5.43.442 6.565.884 2.083.75 3.6 2.2 4.798 4.16 1.52 2.4 2.85 4.8 3.22 7.57.38 2.52.64 5.11-.44 7.57-.5 1.01-2.27 10.1-3.78 13.32-.5 1.07-.76 2.27-1.32 3.34-.76 1.32-1.45 1.64-2.9.94-.63-.32-.76.06-.94.5-.5 1.32-.95 2.65-1.45 3.98-.76 2.02-1.83 3.91-2.78 5.87-.25.5-.56.94-.63 1.51-.38.63-11.43 6.69-12.25 6.75-1.07-1.26-1.07-1.52 0-2.4 6.19-5.18 11.05-11.55 16.29-17.55.44-.51.76-1.07.44-1.77-1.96-4.61-4.73-8.53-8.9-11.3-.88-.63-2.08-.32-2.9-1.07-.06-.13-.12-.25-.19-.44.89-3.92 1.71-7.83 3.29-11.56 1.07-2.66 2.27-5.24 2.72-8.15 0-.95 0-1.96 1.2-2.21zm-45.455 21.465c-.442-.443-.947-.253-1.452-.253-2.96 0-5.93 0-8.9-.063-6.44-.063-19.19.884-18.49.315 3.47-3.03 9.85-8.97 13.13-12.19 1.27-1.27 2.97-1.9 4.55-2.59.7-.32 1.39-.57 2.09-.89 3.22-.26 6.06-1.58 8.84-3.16.76.06.76.69.89 1.2.19.88.44 1.76.63 2.65 0 2.4 1.33 3.72 3.48 4.61 3.03 1.2 5.94 1.32 9.16.31 3.35-1.01 5.93-3.16 8.65-5.05 1.2-.82 1.14-2.15 1.14-3.41 0-.51-.32-1.01 0-1.45.19-.19.44-.19.63-.13.76.69 1.71 1.26 2.65 1.64.57.25 1.2.57 1.26 1.32-.19 1.45-.95 2.65-1.58 3.91-2.59 5.43-4.99 10.92-7.76 16.22-2.08 3.98-3.41 8.33-4.74 12.56-.69 2.15-.31 4.48-.19 6.75.07 1.83-.25 2.27-2.02 1.83-1.83-.51-3.72-.07-5.49-.76-.82-1.83-1.01-3.79-1.39-5.68-1.01-4.42-1.95-8.84-2.77-13.32-.57-1.64-.95-3.22-2.28-4.42z"/><path fill="#4E4D4D" d="M434.85 141.856c2.02-.063 2.903.758 2.776 2.715 0 .32-.062.57-.126.89-.505 0-2.65-2.9-2.65-3.6z"/><path fill="#89746A" d="M402.21 209.975c2.02 0 4.04.126 5.997.63 1.073.253 1.137 0 1.073-1.072-.253-3.535-.38-7.007 1.137-10.417.694-1.515 1.2-3.093 1.704-4.672.83-2.462 2.03-4.735 3.22-7.007 2.91-5.745 5.5-11.68 8.28-17.487.06-.19.13-.38.19-.568.13-.947.51-1.894.95-2.715.57-1.01.26-1.705-.31-2.588-1.58-2.4-3.85-4.11-5.68-6.25-.56-.7-1.13-1.39-1.57-2.21-.06-.07-.19-.19-.25-.19-1.32.5-2.33 3.22-1.64 4.48.06.57 0 1.13.44 1.64.32.38.25.69-.25.88-5.81 1.57-11.68 2.46-17.68 2.27-.94-.06-1.89-.06-2.78-.51-.19-.13-.44-.13-.63-.25-2.4-.51-4.61-1.52-6.69-2.72-.5-.32-.95-.76-1.32-1.2-2.53-2.84-3.91-6.19-4.36-9.91-.25-1.9-.82-3.73-.63-5.69.57-.13.82.38 1.07.69 1.96 2.33 4.74 2.27 7.39 2.33.82 0 1.71-.38 2.28-1.14 1.58-2.21 2.91-4.48 2.65-7.33 0-.25.07-.38.25-.51 2.59-.26 5.18-.89 7.83-.32.63.44.76 1.2.95 1.83 1.08 3.73 3.35 6 7.33 6.38.95.06 1.9.19 2.84.25 1.39.07 2.72-.31 3.66-1.45 1.96-2.27 3.1-4.92 3.22-7.95.19-.51.19-1.27.83-1.27.82-.07 1.51.38 2.08 1.01.32.31.32.75.38 1.13.19 1.51.57 2.97.32 4.54-.06.19-.13.38-.31.44.13.12.26.06.38 0 .38-.13.76-.13 1.2-.13 1.83.31 3.22 1.26 4.23 2.84l.57.57c-.12-.19-.31-.32-.44-.51-.95-1.45-2.33-2.53-3.6-3.73-.38-.45-.76-.95-.76-1.58.07-.76.45-1.45.76-2.15.25-.38.63-.44 1.01-.38.63-.13 1.2.06 1.83.19 2.27.57 6.57 4.17 6.82 4.61.06.69 2.46 3.41 2.78 3.72 1.52 1.58 2.21 3.41 2.27 5.55-.06.51-.25 1.07 0 1.64.13.372.13.82.13 1.2-.12 3.22.19 6.44-.25 9.66-.06.44.19.5.51.63-.7.31-.76 1.07-.82 1.64-.25 2.02-.95 3.91-1.71 5.74-1.45 3.534-2.78 7.07-3.53 10.86-.25 1.26-.82 2.46-.94 3.79-.5 3.47-2.27 6.5-3.6 9.34.51-.89 1.14-1.96 1.71-3.1.44-.947 1.39-1.45 1.96-2.27.57-.886-.76-1.83-.31-2.84.12-.38 0-.82.25-1.14.38.13.76.32 1.14.32.95 0 1.7.44 2.46 1.07.886.7 1.706 1.39 2.59 2.085.63.507 1.137 1.14 1.64 1.77 1.58 2.21 3.095 4.48 4.23 7.007.38.94.316 1.576-.314 2.33-2.142 2.47-4.352 4.86-6.44 7.45-2.4 2.97-4.982 5.68-7.76 8.27-1.01.95-2.02 1.83-3.03 2.72.13.44.51.82.51 1.33-.44.504-.95.946-1.2 1.45-.44 1.01-1.2 1.327-2.21 1.264-.63.44-1.2.44-1.83 0-.064-.12-.064-.25.06-.38.317-.44 1.26 0 1.2-.82-.06-.5-.76-.63-1.07-1.01-1.45-2.08-3.92-2.08-5.94-2.96-.56-.25-1.2-.51-2.02-.76.51.63.95 1.08 1.52 1.33 1.96.88 3.16 2.776 5.05 3.786.51.256.51.635-.06.825-2.65.19-5.3-.066-7.95-.44-.25-1.45-2.9-2.908-4.357-2.34-.5.19-.757.44-.44 1.01.19.38.25.63-.19.82-1.64.32-3.22.13-4.8-.44-.44-.38-.566-.95-.69-1.45-.63-3.404-1.45-6.75-2.08-10.16-.5-.51-.63-.95-.31-1.39zm-19.697-79.04c-.63-1.01-.505-1.83.38-2.652 1.01-.947 1.703-2.146 2.082-3.472.126-.37.19-.75.19-1.19-.064-1.2 0-1.32 1.135-1.7 2.336-.76 4.42-2.02 6.566-3.03 2.336-1.13 4.356-2.71 6.565-4.1 1.08-.69 2.15-1.32 3.16-2.02.44-.25.76-.31 1.2.06 2.53 1.77 5.37 3.03 8.27 3.92.13.07.32.07.44.13 1.52.25 2.4 1.01 3.1 2.59.82 1.89 1.45 3.85 2.53 5.68.63 1.07 1.33 2.15 2.21 3.03.95.95 1.52 2.27 2.78 2.97.25.13.25.44.25.7 0 .44 0 .89-.06 1.39-.18.76-.56 1.01-1.32.69-.44-.18-.88-.37-1.14-.75-1.32-1.7-3.15-2.33-5.11-2.58-3.41-.44-6.82-.57-10.23.25-2.59.57-3.09 1.33-3.03 3.98.07 1.58-.38 2.15-1.95 2.21-1.13.07-2.33 0-3.47.26-.88.19-1.39-.19-1.39-1.07-.06-3.66-.88-3.72-4.41-4.23-2.4-.31-4.86-.25-7.19.26-.88.06-1.51-.19-1.51-1.26z"/><path fill="#918F8F" d="M379.482 139.078c.315-.442.757-.252 1.136-.19.694.506.758 1.264.947 2.022 1.01 3.914 3.662 5.745 7.766 5.366 1.14-.126 1.96-.694 2.53-1.705.76-1.45 1.27-2.96 1.77-4.48.19-.57.13-1.26 1.01-1.2.63.51.76 1.2.51 1.9-.69 1.83-1.13 3.73-2.33 5.37-1.07 1.52-2.52 2.21-4.42 1.9-.56-.12-1.2-.06-1.83-.12-2.33-.19-4.04-1.39-5.36-3.22-.88-1.51-1.32-3.15-1.58-4.86-.06-.25 0-.5-.12-.76z"/><path fill="#91908F" d="M419.697 137.88c.38-.317.82-.443 1.263-.506 0 3.472-1.39 6.313-3.788 8.712-1.01 1.01-2.4 1.326-3.852 1.073-1.136-.19-2.272-.26-3.408-.38-3.157-.45-4.988-2.34-6.188-5.05-.44-1.01-.63-2.09-.947-3.16.19-.19.442-.13.568-.32.063-.07.19-.07.253-.07.758-.07.884.5 1.136 1.01.253.63.38 1.26.632 1.83.947 2.08 2.336 3.6 4.734 3.91 1.073.12 2.21.31 3.283.38 1.516.12 2.84-.45 3.662-1.9.757-1.33 1.39-2.72 1.83-4.11.254-.5.38-1.07.822-1.45z"/><path fill="#3B3330" d="M382.513 130.935c.315.568.505 1.01 1.39.757 3.282-.694 6.565-.694 9.91.126 1.327.315 2.022 1.01 2.21 2.272.063.82.127 1.705.19 2.778 1.64-.568 3.345-.442 5.05-.442.63 0 .884-.38.884-.947 0-.51 0-1.01-.126-1.52-.25-1.39.26-2.28 1.46-3.03 1.33-.76 2.78-1.01 4.23-1.08 2.84-.13 5.68-.38 8.46.25 1.9.44 3.85.82 5.05 2.71.32.44.89.63 1.39.82.51.19.51-.38.82-.51-.12 1.07.44 1.76 1.39 2.21.38.18.76.44 1.2.56.95.37 1.58.94 1.39 2.08.13.06.13.12.06.19-.06.06-.06.06-.12.06-.31 0-.63.19-.88.31-1.07.44-1.89-.13-2.78-.63-.25-1.2-1.39-1.2-2.21-1.71-.18.38-.31.75-.5 1.07-.44.44-.82.82-1.51.69-1.01-.63-1.07-1.71-1.01-2.72.06-1.45-.63-2.08-1.95-2.4-3.47-.82-6.94-.76-10.48-.06-1.07.25-1.26.94-1.32 1.89-.06 1.13.38 2.46-.57 3.47-.12.13-.25.19-.44.25-.25.06-.44.12-.69.12h-.25c-1.39-.19-2.78-.13-4.17.06-1.32.19-2.65.25-4.04.19h-.19c-1.39-.7-.44-2.15-1.13-3.28-.06 1.07 0 2.02-.06 2.9-.06.5.19 1.26-.76 1.26-.63-1.2-.25-2.47-.31-3.67-.06-1.01-.31-1.64-1.45-1.58-2.46-.76-4.86-.06-7.26.13-1.2.06-1.7.82-1.7 2.02 0 .82.32 1.83-.69 2.4-.5.19-.95.19-1.45 0-.06 0-.13-.07-.13-.07.19-1.26-.19-2.46-.25-3.66 0-1.7.51-2.46 2.15-3.03.76-.18 1.33-.44 1.26-1.32z"/><path fill="#5F4335" d="M394.886 164.268c1.39.442 1.452.063 2.21.063 5.68.07 11.236-.31 16.666-1.95.63-.19 1.263-.25 1.957-.19 1.01.26 1.57 1.08 2.08 1.9.06.13.06.32 0 .44-1.01 1.52-2.78 2.09-4.3 2.66-4.93 1.9-9.98 3.54-15.15 4.67-.57.13-1.2.38-1.77 0-.13-.75-1.14-6.44-1.71-7.57z"/><path fill="#89746A" d="M396.717 171.843c1.01-.19 2.084-.378 3.094-.63 1.39-.38 11.37-3.41 13.58-4.294 1.39-.57 4.17-2.4 4.23-2.59 1.07.44 1.96 1.07 1.9 2.4.25.94.32 1.83.25 2.77-.06 1.13-.5 1.89-1.39 2.52-1.45 1.07-2.96 2.08-4.41 3.15-1.95 1.39-4.29 1.76-6.44 2.4-2.46.75-4.79-.07-7.07-.89-.94-.32-1.83-.76-2.65-1.64-.88-.95-1.2-1.96-1.07-3.22z"/><path fill="#4E3630" d="M404.293 147.6c.694 0 2.146 1.074 2.272 1.58.063.25-.062.504-.19.693-1.577 2.778-5.05 4.167-8.143 3.283-1.2-.316-2.4-.63-3.22-1.768-.38-.568-.694-1.136-.63-1.83.125-.695.378-1.137 1.2-.822.062-.063.188-.126.25-.126 2.842.38 5.62-.44 8.46-1.01z"/><path fill="#E3D4D1" d="M404.482 147.79c-.19.885-6.882 2.02-9.66 1.264.064-1.39 1.832-1.452 2.716-1.768.38-.19 3.22-.568 4.23-.378.44 0 .883 0 1.262.063.505 0 1.39.13 1.452.82z"/><path fill="#543123" d="M421.906 152.525c.253.126.632.252.947.505 1.137.758 2.272 1.452 3.41 2.21.63.44 1.198.82 1.767 0 .126-.19.38-.316.632-.127.188.126.188.378.126.568-.253.76-.568 1.52-.884 2.21-.253.51-.694.51-.947.07-.82-1.39-2.272-1.89-3.535-2.71-.758-.5-1.578-.94-2.146-1.64-.19-.25-.38-.5-.19-.82.19-.19.44-.31.82-.25z"/><path fill="#543223" d="M423.99 148.232c1.263-.126 2.272.568 3.41 1.136 1.388.63 2.523 2.02 4.544 1.263-.568 1.27-1.452 1.96-2.02 2.91-.19.32-.82.19-.758-.25.19-1.26-.758-1.64-1.516-2.14-1.39-.88-2.84-1.7-4.23-2.59.002-.57.254-.5.57-.31z"/><path fill="#504E4D" d="M417.046 156.124c-.316 1.01-.884 1.894-1.073 2.904-.063.442-.568 2.588-1.01 2.84-.632.064-.76-1.956-.57-2.65.38-1.452.885-2.904 1.958-4.04.57-.57.57-.57 1.02.378-.25.126-.19.38-.31.568z"/><path fill="#89746A" d="M419.697 137.88c-.316 2.208-1.326 4.166-2.463 6.123-.884 1.58-2.335 1.957-3.85 1.768-1.138-.12-2.273-.25-3.41-.44-2.777-.38-4.166-2.14-5.113-4.48-.25-.63-.44-1.32-.63-2.02-.12-.31-.31-.5-.63-.63.44-.25.7-.63.63-1.2-.06-1.01 0-2.02 0-3.03.07-.94.32-1.26 1.2-1.45 2.21-.31 4.42-.76 6.69-.63 1.77.13 3.48.25 5.18.89 1.39.51 1.45.63 1.45 2.09 0 .82-.06 1.58.26 2.4.26.25.38.5.7.63zm-25.127.946c-.504.19-.504.63-.63 1.136-.505 1.83-1.073 3.662-2.083 5.303-.694 1.136-1.83 1.578-2.967 1.39-1.2-.127-2.4-.19-3.535-.443-.884-.252-1.578-.63-2.146-1.326-.95-1.136-1.84-2.272-2.02-3.788-.13-.758-.38-1.452-.57-2.146.5-.126.63-.38.63-.884 0-.758.06-1.515 0-2.273 0-.757.31-1.136 1.01-1.326.12-.07.31-.07.44-.13 2.08-.38 4.16-.51 6.31-.57.63 0 1.2.12 1.64.57.25 1.32.06 2.71.06 4.04.06 1.77.06 1.83 1.76 1.45.44-.38.25-.95.31-1.45v-3.54c.69 0 1.07.25 1.13.88s.06 1.2.06 1.83c-.07.57.18.94.56 1.26z"/><path fill="#2D221D" d="M392.487 139.772c-.252.442-.568.758-1.01.82-.568.064-1.073-.125-1.073-.693-.063-1.77-.253-3.6.063-5.37 0-.07.126-.13.19-.19 1.514-.51 1.767-.32 1.83 1.2v4.23z"/><path fill="#4E4F4F" d="M420.392 166.73c-.632-.947-1.705-1.642-2.146-2.715.315-.442.694-.38 1.073-.063 1.19.884 2.14 1.957 3.22 2.967.12.12.25.31.12.56s-.38.25-.7.19c-.64-.26-1.08-.7-1.58-.95z"/><path fill="#5F6A68" d="M418.12 162.5c-.064.38-.317.63-.696.63-.378 0-.63-.25-.63-.693s.314-.63.693-.568c.316 0 .57.18.632.63z"/><path fill="#2D231E" d="M414.9 136.742c0 .63.06 1.326 0 1.958-.064.757-.633 1.262-1.39 1.326-.695 0-1.074-.38-1.074-1.326-.062-1.137.063-2.336-.252-3.472-.063-.316 0-.695.126-1.01.253-.694.758-.884 1.452-.82.63.062 1.01.44 1.073 1.072.064.758.064 1.515.064 2.272z"/><path fill="#437C7F" d="M411.3 299.495c-.062.063-.188.126-.252.19.063-.064.126-.126.253-.19z"/><path fill="#78614D" d="M351.263 330.366c.252.126.315.315.315.63-.252-.188-.315-.377-.315-.63z"/><path fill="#95C3BE" d="M440.91 152.21c-.76-.127-.633-.695-.57-1.137.064-1.136-.314-1.957-1.01-2.84-.693-.822-1.515-1.58-1.767-2.716-.063-.126-.19-.252-.19-.38.063-1.767-.82-2.776-2.46-3.22-.38 0-.57-.314-.822-.63-2.14-.316-2.02-1.894-3.47-2.146-.5-.06-1.07-.18-1.51-.56.26-1.58 1.52-1.95 2.78-2.4 1.14-.19 2.02.32 2.91.95 2.59 1.71 4.55 4.11 6.25 6.63.7 1.08 1.08 2.28 1.45 3.47.26.95.19 1.9-.31 2.78-.44.7-.82 1.45-1.26 2.21z"/><path fill="#4B4949" d="M431.88 136.11c-1.072.632-1.956 1.453-2.776 2.4-.63.126-1.2-.19-1.768-.316v-.252c1.39-.947 2.715-1.957 4.545-1.83z"/><path fill="#3B3330" d="M379.482 139.142c.252.126.252.378.252.63-.252-.19-.315-.378-.252-.63z"/><path fill="#5F4335" d="M394.255 164.015c.253-.063.505 0 .63.252-.25.064-.44 0-.63-.252z"/><path fill="#DACFCA" d="M323.8 403.85c-.063 0-.063.064-.126.064-.126 0-.19-.063-.063-.126h.13s.07 0 .07.063z"/><path fill="#95C3BE" d="M417.55 164.015c-.567-.63-1.2-1.2-1.767-1.83-.253-.38-.506-.76-.82-1.074-.506-.5 0-.75.252-1.07.44-1.26.82-2.59 1.515-3.79.127-.25.253-.44.442-.63.062-.06.126-.06.19-.06 1.262 1.71 2.587 3.41 4.292 4.8 1.642 1.33 2.462 3.29 3.914 4.8.19.26.126.51 0 .7-.694 1.14-.947 2.53-1.768 3.66-.694-.88-1.957-.94-2.778-1.64-.38-.31-.884-.5-.946-1.07.126-.12.19-.19.378-.19.568 0 .947.51 1.895.51-1.52-1.2-2.15-2.84-4.11-2.9-.32-.06-.51-.06-.7-.19z"/><path fill="#91B2AC" d="M417.55 164.015c.253 0 .442 0 .695-.063.884.757 1.957 1.452 2.146 2.714h-.88c-.38-1.01-1.26-1.578-1.89-2.4-.06-.06-.06-.124-.06-.25z"/><path fill="#604436" d="M423.927 224.053c-.253 0-.568-.063-.82-.063-1.2-.505-2.146-1.263-3.03-2.21-.568-.63-1.326-1.01-2.084-1.45-.946-.57-2.02-1.137-2.462-2.4 1.01-.19 1.77.442 2.59.758 1.01.378 2.09.757 3.16 1.01.95.19 1.71.568 2.27 1.326.57.694 1.39 1.136 2.09 1.768.19.19.51.442.38.757-.12.44-.5.44-.88.44s-.82 0-1.2.06z"/><path fill="#563324" d="M434.28 187.31c0 .443 0 .885.063 1.327 0 .63-.063 1.263.63 1.768.443.315.443.884-.06 1.136-1.896.83-2.274 2.85-3.284 4.36-.45.63-.83 1.27-1.52 1.9.19-1.26.76-2.21 1.2-3.15 1.07-2.21 2.02-4.48 2.71-6.82 0-.12.12-.31.25-.5z"/><path fill="#614537" d="M410.038 223.106c-.19-.126-.442-.252-.568-.442-.505-.568-.38-1.01.253-1.326.694-.316 1.45-.568 2.21-.252 1.01.442 2.02.947 2.967 1.452.252.126.505.442.315.694-.064.126-3.662.126-5.177-.126z"/><path fill="#2E241F" d="M423.674 137.942c1.01-.126 1.83.442 2.778.63.063.76-.505 1.39-.632 2.084-.44.947-.38 2.21-1.768 2.462.128-1.767-.44-3.472-.378-5.176z"/><path fill="#93BCB6" d="M429.734 146.15c-.757-.948-1.64-1.706-2.714-2.273-.505-.253-.947-.505-1.516-.505-.126-.063-.126-.19-.126-.315.063-.19.19-.316.315-.505.19-.19.315-.568.694-.442 1.642.758 2.65 2.21 3.662 3.662.12.314 0 .44-.32.377z"/><path fill="#4B4948" d="M425.568 143.12c0 .062-.063.188-.063.25-.44 0-.82 0-1.263.19-.568.19-.315-.19-.252-.442.946-.568 1.01-1.768 1.768-2.462 0 .568.63.884.63 1.515-.188.26-.378.45-.63.7-.064 0-.127.13-.19.26z"/></g><g id="Laptop"><path fill="#969693" d="M405.81 235.543c-3.537.063-64.143-3.03-68.562-3.093-1.326 0-1.83-.442-2.02-1.58-.505-3.155-1.58-9.974-1.58-10.226-.378-2.21-3.976-23.295-4.48-26.515-.38-2.21-.758-4.42-1.137-6.7-.12-.57-.12-1.2-.18-1.77.51-.32 1.01-.19 1.52-.19 4.23 0 38.07.12 38.77.12 8.65-.13 17.3.5 25.95.31.63 0 1.2 0 1.71.44.7 1.26.63 2.71.95 4.1 2.97 14.45 6.06 28.91 9.09 43.37.13.5.26.95.13 1.51-.06.06-.06.12-.13.19z"/><path fill="#969693" d="M426.704 226.136c.253.252.253.568.253.82-.315 2.21.758 3.726 2.462 4.925-.95.7-2.09.64-3.16.83-3.79.7-7.58 1.39-11.37 1.96-2.59.44-5.18 1.14-7.83 1.08-.44 0-.95.13-1.27-.25l.06-.06c.69-.82 1.58-.69 2.9-.25-1.45-2.46-.95-4.61.12-6.69 5.43-1.01 10.92-1.7 16.41-2.59.38.06.95 0 1.39.25z"/><path fill="#FFF" d="M426.704 226.136c-2.398.38-4.86.82-7.26 1.2-3.094.505-6.187.947-9.217 1.452-.568.063-1.073.063-1.642.126-1.83.442-2.715 0-3.094-1.705-.25-1.39-.94-2.78-.5-4.3 1.14-.19 2.27.19 3.41.19.57 0 6.31.44 6.44.44 2.78.06 5.49.5 8.27.44.32-.26.57-.26.82.06.57.37 1.27.12 1.9.31.32.44.95.12 1.39.44.07.5-.38.88-.5 1.32z"/><path fill="#787874" d="M404.987 222.917c.315 1.58.694 3.094 1.01 4.672.127.63.316 1.07 1.137 1.07.505 0 .947.19 1.452.31.126.25.63.31.38.69-1.2 1.77-.885 3.6 0 5.36.06.06.06.19.06.31 0 .06 0 .06-.06.19-1.012.31-2.022-.51-3.03.06-.822-3.73-1.643-7.45-2.4-11.18-.82-3.98-1.704-7.96-2.525-11.93-.75-3.73-1.57-7.45-2.33-11.18-.82-3.85-1.58-7.64-2.4-11.49-.19-1.01-.44-1.96-.31-2.97 1.01.38 1.77 1.01 2.02 2.21l4.36 20.64v.44c.82 2.65 1.14 5.37 1.77 8.02.25 1.45.51 3.09.89 4.74z"/><path fill="#FFF" d="M357.323 204.924c.252-.063.38-.126.505-.126 1.39 0 2.778-.19 4.04.126 1.39.315 1.958 1.83 2.905 2.714 1.2 1.073 2.273 2.273 3.473 3.536-2.02 1.957-3.978 3.85-5.872 5.745-.19.18-.442.37-.757.37h-4.482c-.063-.13-.126-.25-.126-.38 1.07-1.07 2.2-2.15 3.28-3.22.69-.7 1.39-1.33 2.08-1.96.57-.44.57-.82.06-1.33-1.27-1.2-2.46-2.53-3.73-3.79-.45-.44-.95-.95-1.39-1.71z"/></g><g id="Coffee"><path fill="#F7FFFF" d="M429.23 221.59c.883-.756 1.894-1.388 3.03-1.514.567-.063.693-.315.883-.82.38-1.264 1.326-2.02 2.463-2.652 1.894-1.01 3.914-1.136 5.934-1.705 2.84-.19 5.62.18 8.334.94 2.903.76 4.166 2.02 4.482 5.05.188 1.64.63 3.22.63 4.92-.062 1.89-.125 3.79-.63 5.68-.316 1.26-.947 2.14-2.02 2.9-1.77 1.26-3.726 1.83-5.81 1.95-2.21.12-4.42-.06-6.628-.32-2.336-.32-4.356-1.14-5.745-3.16-.38-.51-.884-.38-1.39-.38-1.136 0-2.335 0-3.346-.63-1.704-.51-2.525-1.71-2.777-3.35-.127-.76 0-1.52-.127-2.28.442-.95-.505-1.39-.757-2.08.946-.32 1.768-.89 2.272-1.83.255-.38.634-.76 1.2-.76z"/><path fill="#775F4A" d="M448.863 216.667c1.073.063 1.957.505 2.715 1.137s.758 1.2.063 1.894c-.5.442-1.13.82-1.83 1.01-4.23 1.073-8.39 1.2-12.62-.126-.5-.19-1.07-.316-1.39-.82 1.9-2.337 4.55-3.03 7.39-3.158 1.9-.126 3.79.126 5.69.063z"/><path fill="#6C543F" d="M448.863 216.667c-.38.505-.884.316-1.39.316h-4.228c-1.768 0-3.473.38-5.05 1.2-.506.252-1.01.44-1.264 1.01-.25.504-.69.504-1.13.504-1.01-.947-1.01-1.39 0-2.083 1.08-.695 2.27-1.136 3.54-1.263 3.16-.37 6.38-.56 9.54.32z"/><path fill="#989895" d="M433.018 228.41c.063.946-.126 1.135-.947.82-.75-.253-1.51-.38-1.83-1.326-.5-1.64.51-2.84 2.15-2.588.32.063.38.253.38.505.06.95.06 1.83.25 2.59z"/></g></g></svg>