<svg xmlns="http://www.w3.org/2000/svg" width="721.439" height="181.986"><path d="M4.892 82.047l5.7-31.799h-7.05c-2.7 0-3.9-1.5-3.45-4.2l2.1-11.399c.3-2.7 2.1-4.2 4.8-4.2h9.45l5.25-14.699c1.2-3.45 3.75-5.1 7.049-5.1h9.6c3.6 0 5.25 1.95 4.65 5.55l-2.55 14.249h15.75c2.7 0 3.9 1.5 3.45 4.2l-1.95 11.399c-.45 2.7-2.25 4.2-4.95 4.2h-15.75l-5.7 32.249c-.9 4.649 1.05 6.45 3.75 6.45 3.45 0 6-3.15 6.6-6.6.15-.75.15-1.2.15-2.55.3-2.85 1.5-4.35 4.35-4.35h10.05c2.25 0 3.9.9 4.05 3.15.45 2.1.3 4.35.15 6-3.45 19.2-18.299 25.499-32.099 25.499-13.5-.001-27.3-5.85-23.4-28.049z"/><path d="M55.891 69.447c3.9-22.499 25.499-40.648 51.148-40.648 25.799 0 40.948 18.149 37.048 40.648-4.05 22.499-25.649 40.648-51.448 40.648-25.648 0-40.798-18.149-36.748-40.648zm62.847 0c1.95-11.1-4.649-19.199-15.449-19.199-10.799 0-20.249 8.25-22.199 19.199-1.95 10.95 4.65 19.349 15.45 19.349 10.799 0 20.249-8.249 22.198-19.349z"/><path d="M136.29 100.346l10.949-61.797c.9-5.25 4.35-8.1 9.6-8.1h10.65c5.25 0 7.649 2.85 6.75 8.1l-.6 3c4.35-7.95 12.75-12.75 21.899-12.75 9.449 0 16.349 4.2 19.349 12.3 9.75-10.65 18.149-12.3 26.699-12.3 20.849 0 24.749 18.899 21.898 34.499l-6.449 37.048c-.9 5.249-4.35 8.1-9.6 8.1h-10.8c-5.25 0-7.5-2.851-6.6-8.1l6.149-35.549c1.5-8.549 0-14.549-6.45-14.549-6.299 0-11.549 5.7-13.5 15.899l-6 34.199c-.9 5.249-4.35 8.1-9.6 8.1h-10.799c-5.25 0-7.5-2.851-6.6-8.1l6.15-35.549c1.5-8.549 0-14.549-6.45-14.549s-11.85 6-13.649 16.35l-6 33.749c-.9 5.249-4.2 8.1-9.45 8.1H143.04c-5.25-.001-7.65-2.852-6.75-8.101z"/><path d="M259.139 69.447c3.899-22.499 25.499-40.648 51.147-40.648 25.8 0 40.948 18.149 37.049 40.648-4.05 22.499-25.648 40.648-51.448 40.648-25.649 0-40.798-18.149-36.748-40.648zm62.847 0c1.949-11.1-4.65-19.199-15.449-19.199-10.8 0-20.25 8.25-22.199 19.199-1.95 10.95 4.649 19.349 15.449 19.349s20.249-8.249 22.199-19.349z"/><path d="M343.887 69.447c4.05-23.249 22.798-40.648 44.099-40.648 10.199 0 17.998 4.2 21.449 12.15l5.85-32.849c.898-5.25 4.35-8.1 9.6-8.1h10.799c5.25 0 7.5 2.85 6.6 8.1l-16.199 92.246c-.9 5.249-4.35 8.1-9.6 8.1h-10.799c-5.25 0-7.5-2.851-6.6-8.1l.299-2.25c-6.299 7.8-15.6 11.999-25.648 11.999-21.451 0-34.049-17.399-29.85-40.648zm61.048 0c1.799-11.1-3.301-19.649-13.801-19.649-10.648 0-18.449 8.7-20.248 19.649-1.951 10.95 2.85 19.649 13.35 19.649 10.498.001 18.748-8.549 20.699-19.649z"/><path d="M429.386 69.447c3.9-22.499 25.5-40.648 51.148-40.648 25.799 0 40.947 18.149 37.049 40.648-4.051 22.499-25.648 40.648-51.449 40.648-25.648 0-40.797-18.149-36.748-40.648zm62.848 0c1.949-11.1-4.65-19.199-15.449-19.199s-20.25 8.25-22.199 19.199c-1.949 10.95 4.65 19.349 15.449 19.349 10.8 0 20.25-8.249 22.199-19.349z"/><path d="M509.787 100.346l10.949-61.797c.9-5.25 4.35-8.1 9.6-8.1h10.648c5.25 0 7.65 2.85 6.75 8.1l-.6 3c4.35-7.95 12.75-12.75 21.898-12.75 9.451 0 16.35 4.2 19.35 12.3 9.75-10.65 18.15-12.3 26.699-12.3 20.85 0 24.75 18.899 21.898 34.499l-6.449 37.048c-.9 5.249-4.35 8.1-9.6 8.1h-10.799c-5.25 0-7.5-2.851-6.6-8.1l6.148-35.549c1.5-8.549 0-14.549-6.449-14.549-6.299 0-11.549 5.7-13.5 15.899l-6 34.199c-.898 5.249-4.35 8.1-9.6 8.1h-10.799c-5.25 0-7.5-2.851-6.6-8.1l6.15-35.549c1.5-8.549 0-14.549-6.451-14.549-6.449 0-11.848 6-13.648 16.35l-6 33.749c-.9 5.249-4.199 8.1-9.449 8.1h-10.801c-5.245-.001-7.646-2.852-6.745-8.101z"/><path d="M632.634 69.447c3.9-22.499 25.5-40.648 51.148-40.648 25.799 0 40.947 18.149 37.049 40.648-4.051 22.499-25.648 40.648-51.449 40.648-25.648 0-40.797-18.149-36.748-40.648zm62.848 0c1.949-11.1-4.65-19.199-15.449-19.199s-20.25 8.25-22.199 19.199c-1.949 10.95 4.65 19.349 15.449 19.349 10.8 0 20.25-8.249 22.199-19.349z"/><path fill="#BBB" d="M18.959 158.107v-14.76H9c-1.32 0-2.22 0-2.22-1.62 0-1.439 1.08-1.439 2.22-1.439h9.959v-11.64c0-1.26 0-2.221 1.56-2.221 1.38 0 1.44 1.08 1.44 2.221v11.64h16.14v-11.64c0-1.26 0-2.221 1.56-2.221 1.44 0 1.44 1.08 1.44 2.221v11.64h11.16c1.32 0 2.22 0 2.22 1.62 0 1.439-1.08 1.439-2.22 1.439h-11.16v14.76h13.979c1.32 0 2.22 0 2.22 1.68 0 1.5-1.08 1.5-2.22 1.5H4.98c-1.32 0-2.22 0-2.22-1.68 0-1.5 1.08-1.5 2.22-1.5h13.979zM7.74 178.746c7.32-4.38 11.04-10.8 12.66-14.459.24-.54.479-1.08 1.32-1.08 1.02 0 1.62.899 1.62 1.5 0 .84-2.7 6.539-7.2 11.22-3.419 3.479-7.439 5.819-8.279 5.819-.96 0-1.32-.96-1.38-1.2-.181-.961.419-1.32 1.259-1.8zm14.219-35.399v14.76h16.14v-14.76h-16.14zm16.799 20.1c.72 0 .84.18 2.28 3.119 2.4 4.98 4.14 7.5 10.8 12.359.78.601 1.2.9 1.2 1.62 0 .78-.6 1.44-1.5 1.44-1.14 0-5.22-3.3-7.32-5.46-4.14-4.14-7.08-10.92-7.08-11.699.001-1.26 1.501-1.379 1.62-1.379zm39.721-19.92c-2.28 4.5-5.22 10.32-9.36 15.18-1.44 1.62-4.26 4.5-5.58 4.5-.84 0-1.38-.66-1.38-1.32 0-.779.54-1.38 1.92-2.64 9.359-8.52 14.399-23.579 15.539-27.479 1.2-4.199 1.32-4.319 2.46-4.319.96 0 1.38.78 1.38 1.5 0 1.68-2.94 9.42-3.78 11.64h24.299c3.54 0 5.64 1.979 5.64 4.68 0 2.82-3.18 8.22-4.44 10.26-5.34 8.939-9.72 12.659-13.02 15.539 2.04 2.1 6.48 6.84 6.48 8.34 0 .84-.66 1.38-1.38 1.38-.9 0-1.2-.36-4.02-3.899-1.74-2.221-6.12-7.26-15.479-14.52-1.92-1.5-2.16-1.681-2.16-2.46 0-.66.42-1.32 1.26-1.32 2.1 0 9.899 7.26 13.08 10.26 3.06-2.58 7.02-5.939 12.299-14.46 1.92-3.06 4.02-6.899 4.02-8.759 0-.96-.42-2.101-2.4-2.101H78.479z"/></svg>