<?xml version="1.0" encoding="utf-8"?>
<!DOCTYPE svg PUBLIC "-//W3C//DTD SVG 1.1//EN" "http://www.w3.org/Graphics/SVG/1.1/DTD/svg11.dtd">
{% if width is defined %}{% set height = (179.573/353.117) * width %}{% endif %}
<svg version="1.1" id="Layer_1" xmlns="http://www.w3.org/2000/svg" xmlns:xlink="http://www.w3.org/1999/xlink" x="0px" y="0px" width="{{ width|default('353.117') }}px" height="{{ height|default('179.573') }}px" viewBox="0 0 353.117 179.573" enable-background="new 0 0 353.117 179.573" xml:space="preserve">
<g fill="{{ fill|default('#555') }}">
	<path d="M52.358,102.392V54.687H20.167c-4.266,0-7.175,0-7.175-5.236c0-4.654,3.49-4.654,7.175-4.654h32.191V7.176
		c0-4.073,0-7.176,5.042-7.176c4.46,0,4.655,3.491,4.655,7.176v37.621h52.164V7.176c0-4.073,0-7.176,5.042-7.176
		c4.655,0,4.655,3.491,4.655,7.176v37.621h36.07c4.267,0,7.175,0,7.175,5.235c0,4.655-3.489,4.655-7.175,4.655h-36.07v47.705H169.1
		c4.266,0,7.175,0,7.175,5.43c0,4.849-3.49,4.849-7.175,4.849H7.175c-4.266,0-7.175,0-7.175-5.43c0-4.849,3.49-4.849,7.175-4.849
		H52.358z M16.096,169.101c23.657-14.156,35.682-34.905,40.918-46.735c0.776-1.745,1.552-3.49,4.266-3.49
		c3.295,0,5.236,2.909,5.236,4.847c0,2.715-8.726,21.138-23.27,36.265c-11.054,11.246-24.049,18.811-26.763,18.811
		c-3.104,0-4.266-3.104-4.46-3.879C11.44,171.815,13.379,170.653,16.096,169.101z M62.055,54.687v47.705h52.164V54.687H62.055z
		 M116.352,119.651c2.328,0,2.717,0.581,7.37,10.083c7.759,16.096,13.382,24.241,34.905,39.948c2.522,1.94,3.88,2.908,3.88,5.236
		c0,2.521-1.938,4.654-4.848,4.654c-3.685,0-16.871-10.667-23.659-17.646c-13.379-13.382-22.882-35.295-22.882-37.816
		C111.118,120.038,115.965,119.651,116.352,119.651z"/>
	<path d="M252.472,55.269c-7.369,14.544-16.872,33.355-30.253,49.063c-4.655,5.235-13.769,14.544-18.034,14.544
		c-2.717,0-4.461-2.133-4.461-4.267c0-2.521,1.744-4.459,6.204-8.532c30.254-27.538,46.544-76.211,50.229-88.817
		c3.877-13.575,4.266-13.963,7.95-13.963c3.101,0,4.461,2.521,4.461,4.849c0,5.43-9.502,30.446-12.219,37.621h78.54
		c11.44,0,18.229,6.399,18.229,15.125c0,9.115-10.278,26.568-14.352,33.162c-17.259,28.894-31.416,40.918-42.081,50.225
		c6.594,6.787,20.943,22.108,20.943,26.955c0,2.715-2.133,4.461-4.461,4.461c-2.909,0-3.876-1.162-12.992-12.604
		c-5.623-7.177-19.78-23.466-50.031-46.931c-6.206-4.849-6.982-5.43-6.982-7.951c0-2.133,1.357-4.266,4.074-4.266
		c6.785,0,31.997,23.464,42.274,33.161c9.89-8.338,22.689-19.199,39.753-46.735c6.207-9.89,12.995-22.301,12.995-28.313
		c0-3.102-1.359-6.787-7.759-6.787H252.472z"/>
</g>
</svg>
